<svg width="1440" height="908" viewBox="0 0 1440 908" fill="none" xmlns="http://www.w3.org/2000/svg">
<rect width="1440" height="907" fill="#262C7C"/>
<g opacity="0.857073">
<g opacity="0.15">
<path fill-rule="evenodd" clip-rule="evenodd" d="M108.729 188.086C108.729 191.71 105.657 194.65 101.868 194.65C98.0786 194.65 95.0058 191.71 95.0058 188.086C95.0058 184.46 98.0786 181.522 101.868 181.522C105.657 181.522 108.729 184.46 108.729 188.086Z" stroke="white"/>
<path fill-rule="evenodd" clip-rule="evenodd" d="M127.354 214.81C127.354 217.141 125.379 219.03 122.943 219.03C120.507 219.03 118.532 217.141 118.532 214.81C118.532 212.479 120.507 210.59 122.943 210.59C125.379 210.59 127.354 212.479 127.354 214.81Z" stroke="white"/>
<path fill-rule="evenodd" clip-rule="evenodd" d="M99.9071 205.433C99.9071 207.764 97.9323 209.653 95.496 209.653C93.0596 209.653 91.0848 207.764 91.0848 205.433C91.0848 203.103 93.0596 201.214 95.496 201.214C97.9323 201.214 99.9071 203.103 99.9071 205.433Z" stroke="white"/>
<path fill-rule="evenodd" clip-rule="evenodd" d="M117.551 205.433C117.551 207.764 115.576 209.653 113.14 209.653C110.704 209.653 108.729 207.764 108.729 205.433C108.729 203.103 110.704 201.214 113.14 201.214C115.576 201.214 117.551 203.103 117.551 205.433Z" stroke="white"/>
<path fill-rule="evenodd" clip-rule="evenodd" d="M134.216 202.62C134.216 204.432 132.68 205.902 130.785 205.902C128.89 205.902 127.354 204.432 127.354 202.62C127.354 200.808 128.89 199.338 130.785 199.338C132.68 199.338 134.216 200.808 134.216 202.62Z" stroke="white"/>
<path fill-rule="evenodd" clip-rule="evenodd" d="M113.63 220.436C113.63 221.73 112.533 222.78 111.18 222.78C109.827 222.78 108.729 221.73 108.729 220.436C108.729 219.141 109.827 218.092 111.18 218.092C112.533 218.092 113.63 219.141 113.63 220.436Z" stroke="white"/>
<path fill-rule="evenodd" clip-rule="evenodd" d="M124.413 189.492C124.413 190.787 123.316 191.837 121.962 191.837C120.608 191.837 119.512 190.787 119.512 189.492C119.512 188.197 120.608 187.148 121.962 187.148C123.316 187.148 124.413 188.197 124.413 189.492Z" stroke="white"/>
<path fill-rule="evenodd" clip-rule="evenodd" d="M151.513 199.222C150.933 197.956 149.88 197.6 148.797 198.049C148.154 198.316 147.596 198.528 147.596 198.528C146.595 198.928 145.504 199.42 144.401 199.42H144.082C142.974 199.42 142.067 198.606 141.962 197.552C141.678 194.676 140.95 191.856 139.804 189.187C139.397 188.238 139.769 187.148 140.699 186.635L141.097 186.414C142.053 185.887 143.256 185.791 144.331 185.659C144.331 185.659 144.926 185.575 145.62 185.498C146.795 185.37 147.52 184.557 147.361 183.184C147.297 182.635 147.096 182.079 146.794 181.579C146.491 181.078 146.089 180.634 145.624 180.306C144.46 179.489 143.363 179.682 142.658 180.591C142.242 181.129 141.868 181.58 141.868 181.58C141.211 182.404 140.524 183.353 139.567 183.881L139.299 184.029C138.339 184.559 137.125 184.286 136.484 183.422C134.769 181.11 132.677 179.016 130.24 177.224C129.386 176.598 129.139 175.473 129.675 174.584L129.91 174.198C130.461 173.282 131.453 172.625 132.315 171.996C132.315 171.996 132.786 171.639 133.348 171.241C134.298 170.568 134.501 169.516 133.646 168.404C133.303 167.959 132.838 167.574 132.315 167.285C131.793 166.997 131.212 166.803 130.637 166.743C129.203 166.59 128.352 167.285 128.217 168.407C128.138 169.071 128.052 169.64 128.052 169.64C127.912 170.669 127.812 171.819 127.261 172.735L127.098 173.002C126.545 173.922 125.353 174.266 124.346 173.824C121.547 172.591 118.636 171.796 115.703 171.421C114.636 171.285 113.834 170.432 113.834 169.404V168.969C113.834 167.912 114.349 166.869 114.766 165.911C114.766 165.911 114.989 165.377 115.267 164.763C115.738 163.726 115.363 162.718 114.042 162.164C113.513 161.942 112.91 161.831 112.305 161.831C111.701 161.831 111.097 161.942 110.568 162.164C109.246 162.718 108.873 163.726 109.342 164.763C109.622 165.377 109.843 165.911 109.843 165.911C110.261 166.869 110.775 167.912 110.775 168.969V169.272C110.775 170.332 109.926 171.2 108.823 171.299C105.818 171.572 102.868 172.267 100.079 173.365C99.0867 173.754 97.9472 173.398 97.4099 172.509L97.18 172.128C96.6278 171.212 96.5278 170.063 96.3891 169.034C96.3891 169.034 96.3017 168.465 96.223 167.8C96.0893 166.677 95.2384 165.983 93.8027 166.136C93.2292 166.197 92.6482 166.389 92.1247 166.679C91.6024 166.967 91.1376 167.352 90.794 167.797C89.9394 168.91 90.1431 169.962 91.0927 170.634C91.6549 171.033 92.126 171.389 92.126 171.389C92.9868 172.019 93.9789 172.676 94.5312 173.591L94.6874 173.847C95.2409 174.767 94.9548 175.926 94.0514 176.54C91.6349 178.181 89.4446 180.182 87.5717 182.514C86.9182 183.329 85.7412 183.567 84.8116 183.053L84.408 182.829C83.451 182.301 82.765 181.353 82.1065 180.529C82.1065 180.529 81.7329 180.078 81.3169 179.54C80.6147 178.632 79.5151 178.437 78.3519 179.256C77.8858 179.583 77.4835 180.028 77.1824 180.527C76.8813 181.028 76.6789 181.584 76.6151 182.134C76.4565 183.506 77.1812 184.32 78.3544 184.448C79.0503 184.524 79.6451 184.607 79.6451 184.607C80.7209 184.741 81.9229 184.835 82.8787 185.363L83.1598 185.519C84.1194 186.048 84.4805 187.188 84.0157 188.152C82.7288 190.829 81.8979 193.614 81.5068 196.419C81.3631 197.438 80.4722 198.206 79.3964 198.206H78.9416C77.8371 198.206 76.7463 197.713 75.7455 197.314C75.7455 197.314 75.187 197.103 74.5448 196.836C73.4615 196.385 72.4082 196.743 71.8285 198.007C71.5961 198.514 71.4799 199.091 71.4799 199.67C71.4799 200.247 71.5961 200.824 71.8285 201.331C72.4082 202.596 73.4615 202.953 74.5448 202.503C75.187 202.236 75.7455 202.024 75.7455 202.024C76.7463 201.625 77.8371 201.133 78.9416 201.133H79.2603C80.3673 201.133 81.2744 201.946 81.3781 203C81.6642 205.875 82.3914 208.696 83.5372 211.365C83.9457 212.314 83.5722 213.404 82.6426 213.918L82.2452 214.138C81.2881 214.666 80.0862 214.761 79.0116 214.894C79.0116 214.894 78.4156 214.978 77.7197 215.053C76.5464 215.183 75.8217 215.995 75.9804 217.369C76.0454 217.917 76.2466 218.473 76.5477 218.973C76.85 219.473 77.2511 219.918 77.7172 220.245C78.8804 221.064 79.9799 220.869 80.6834 219.961C81.0995 219.423 81.4718 218.973 81.4718 218.973C82.1303 218.148 82.8175 217.2 83.7733 216.672L84.0432 216.524C85.004 215.993 86.2148 216.265 86.857 217.131C88.5725 219.442 90.6641 221.537 93.103 223.328C93.9552 223.954 94.2026 225.079 93.6653 225.968L93.4329 226.355C92.8794 227.27 91.8886 227.927 91.0277 228.556C91.0277 228.556 90.5554 228.913 89.9931 229.311C89.0435 229.984 88.8411 231.036 89.6958 232.148C90.0381 232.593 90.5029 232.978 91.0264 233.267C91.55 233.556 92.131 233.749 92.7045 233.809C94.1401 233.962 94.9897 233.267 95.1234 232.145C95.2034 231.48 95.2909 230.911 95.2909 230.911C95.4295 229.882 95.5283 228.733 96.0818 227.818L96.2442 227.549C96.7977 226.631 97.9884 226.286 98.9955 226.729C101.794 227.962 104.706 228.755 107.639 229.131C108.704 229.267 109.507 230.12 109.507 231.149V231.584C109.507 232.641 108.992 233.684 108.575 234.642C108.575 234.642 108.353 235.176 108.074 235.79C107.603 236.827 107.977 237.834 109.3 238.389C109.83 238.611 110.433 238.721 111.035 238.721C111.64 238.721 112.244 238.611 112.773 238.389C114.097 237.834 114.47 236.827 113.999 235.79C113.719 235.176 113.498 234.642 113.498 234.642C113.081 233.684 112.566 232.641 112.566 231.584V231.28C112.566 230.221 113.417 229.352 114.519 229.252C117.524 228.98 120.473 228.284 123.263 227.187C124.256 226.798 125.395 227.155 125.931 228.043L126.161 228.425C126.714 229.34 126.812 230.49 126.952 231.517C126.952 231.517 127.04 232.088 127.12 232.752C127.253 233.874 128.103 234.569 129.539 234.416C130.112 234.356 130.693 234.162 131.217 233.874C131.739 233.585 132.204 233.2 132.546 232.754C133.402 231.642 133.2 230.591 132.25 229.918C131.688 229.52 131.215 229.163 131.215 229.163C130.353 228.534 129.362 227.877 128.81 226.961L128.655 226.704C128.1 225.786 128.385 224.626 129.29 224.013C131.706 222.372 133.897 220.371 135.768 218.038C136.423 217.223 137.599 216.986 138.528 217.499L138.933 217.722C139.889 218.251 140.576 219.198 141.235 220.023C141.235 220.023 141.607 220.475 142.024 221.012C142.728 221.921 143.826 222.115 144.989 221.296C145.454 220.969 145.858 220.524 146.159 220.024C146.461 219.524 146.662 218.968 146.726 218.419C146.886 217.046 146.16 216.233 144.986 216.104C144.292 216.029 143.696 215.945 143.696 215.945C142.622 215.812 141.42 215.717 140.463 215.188L140.183 215.033C139.222 214.504 138.861 213.363 139.324 212.401C140.613 209.724 141.442 206.938 141.835 204.133C141.977 203.113 142.87 202.346 143.945 202.346H144.401C145.504 202.346 146.595 202.838 147.596 203.238C147.596 203.238 148.154 203.45 148.797 203.717C149.88 204.166 150.933 203.809 151.513 202.544C151.745 202.038 151.86 201.46 151.86 200.883C151.86 200.306 151.745 199.727 151.513 199.222Z" stroke="white"/>
</g>
<g opacity="0.15">
<path fill-rule="evenodd" clip-rule="evenodd" d="M964.725 336.695C963.174 357.91 943.941 373.912 921.776 372.429C899.611 370.947 882.893 352.54 884.444 331.325C885.995 310.104 905.228 294.109 927.393 295.592C949.558 297.074 966.276 315.474 964.725 336.695Z" stroke="white"/>
<path fill-rule="evenodd" clip-rule="evenodd" d="M1059.95 497.842C1058.91 512.074 1046.01 522.804 1031.15 521.81C1016.28 520.815 1005.06 508.472 1006.1 494.24C1007.14 480.007 1020.05 469.278 1034.91 470.272C1049.78 471.267 1060.99 483.609 1059.95 497.842Z" stroke="white"/>
<path fill-rule="evenodd" clip-rule="evenodd" d="M910.775 430.215C909.734 444.448 896.838 455.178 881.968 454.183C867.097 453.188 855.887 440.846 856.928 426.613C857.968 412.381 870.865 401.651 885.735 402.646C900.605 403.64 911.815 415.983 910.775 430.215Z" stroke="white"/>
<path fill-rule="evenodd" clip-rule="evenodd" d="M1010.88 436.787C1009.84 451.019 996.938 461.749 982.07 460.755C967.202 459.76 955.993 447.418 957.034 433.185C958.074 418.953 970.969 408.223 985.837 409.217C1000.71 410.212 1011.92 422.555 1010.88 436.787Z" stroke="white"/>
<path fill-rule="evenodd" clip-rule="evenodd" d="M1104.13 429.75C1103.36 440.354 1093.75 448.358 1082.66 447.616C1071.57 446.875 1063.22 437.669 1063.99 427.065C1064.77 416.46 1074.38 408.456 1085.47 409.198C1096.55 409.939 1104.91 419.145 1104.13 429.75Z" stroke="white"/>
<path fill-rule="evenodd" clip-rule="evenodd" d="M977.542 524.165C977.031 531.152 970.699 536.422 963.4 535.934C956.101 535.445 950.597 529.384 951.108 522.396C951.619 515.409 957.951 510.145 965.25 510.634C972.549 511.122 978.053 517.177 977.542 524.165Z" stroke="white"/>
<path fill-rule="evenodd" clip-rule="evenodd" d="M1050.18 349.447C1049.66 356.435 1043.33 361.704 1036.03 361.216C1028.73 360.727 1023.23 354.666 1023.74 347.679C1024.25 340.691 1030.58 335.427 1037.88 335.916C1045.18 336.404 1050.69 342.459 1050.18 349.447Z" stroke="white"/>
<path fill-rule="evenodd" clip-rule="evenodd" d="M1205.12 414.166C1202.33 406.678 1196.43 404.23 1190.03 406.394C1186.23 407.677 1182.94 408.684 1182.94 408.684C1177.03 410.591 1170.57 412.999 1164.24 412.576L1162.41 412.454C1156.05 412.028 1151.19 407.008 1151.03 400.917C1150.61 384.302 1147.61 367.832 1142.16 352.073C1140.22 346.469 1142.82 340.355 1148.36 337.769L1150.74 336.653C1156.45 333.994 1163.39 333.907 1169.61 333.558C1169.61 333.558 1173.06 333.306 1177.07 333.133C1183.87 332.85 1188.37 328.456 1188.03 320.519C1187.9 317.339 1186.97 314.072 1185.45 311.088C1183.93 308.097 1181.8 305.391 1179.27 303.333C1172.94 298.193 1166.56 298.884 1162.14 303.827C1159.53 306.755 1157.19 309.205 1157.19 309.205C1153.08 313.679 1148.74 318.863 1143.02 321.528L1141.43 322.276C1135.69 324.947 1128.85 322.917 1125.53 317.711C1116.66 303.777 1105.54 290.955 1092.31 279.736C1087.68 275.814 1086.73 269.263 1090.18 264.365L1091.69 262.239C1095.23 257.195 1101.2 253.803 1106.41 250.525C1106.41 250.525 1109.26 248.654 1112.65 246.586C1118.38 243.087 1119.99 237.128 1115.55 230.42C1113.77 227.729 1111.27 225.342 1108.39 223.481C1105.51 221.627 1102.26 220.293 1098.99 219.729C1090.82 218.301 1085.65 221.96 1084.4 228.35C1083.67 232.134 1082.94 235.367 1082.94 235.367C1081.71 241.22 1080.65 247.781 1077.1 252.825L1076.06 254.3C1072.5 259.363 1065.52 260.881 1059.93 257.956C1044.39 249.809 1028.02 244.13 1011.35 240.85C1005.29 239.659 1001.04 234.453 1001.48 228.553L1001.66 226.055C1002.1 219.991 1005.49 214.199 1008.29 208.864C1008.29 208.864 1009.79 205.883 1011.64 202.463C1014.78 196.696 1013.05 190.762 1005.7 187.078C1002.76 185.6 999.349 184.73 995.88 184.498C992.418 184.266 988.902 184.672 985.776 185.746C977.96 188.415 975.394 194.062 977.654 200.19C979.002 203.824 980.047 206.975 980.047 206.975C982.039 212.63 984.554 218.817 984.111 224.882L983.984 226.624C983.539 232.71 978.301 237.364 971.93 237.51C954.576 237.921 937.361 240.782 920.902 246.01C915.047 247.866 908.659 245.384 905.95 240.074L904.791 237.797C902.007 232.33 901.916 225.699 901.552 219.739C901.552 219.739 901.289 216.439 901.117 212.588C900.821 206.095 896.231 201.782 887.93 202.109C884.615 202.239 881.201 203.121 878.076 204.58C874.959 206.033 872.131 208.064 869.973 210.491C864.603 216.55 865.33 222.665 870.496 226.885C873.554 229.392 876.107 231.618 876.107 231.618C880.781 235.563 886.197 239.717 888.981 245.178L889.77 246.713C892.559 252.201 890.431 258.745 884.991 261.925C870.44 270.417 857.035 281.061 845.312 293.727C841.221 298.155 834.369 299.069 829.252 295.762L827.03 294.324C821.761 290.925 818.224 285.221 814.792 280.235C814.792 280.235 812.838 277.505 810.677 274.258C807.03 268.775 800.804 267.235 793.787 271.488C790.976 273.188 788.481 275.586 786.544 278.338C784.606 281.097 783.212 284.21 782.616 287.341C781.13 295.156 784.945 300.106 791.622 301.29C795.583 301.996 798.96 302.698 798.96 302.698C805.076 303.879 811.932 304.883 817.193 308.282L818.741 309.281C824.024 312.689 825.617 319.372 822.546 324.723C814.04 339.597 808.105 355.263 804.684 371.214C803.432 377.011 797.999 381.074 791.828 380.661L789.219 380.486C782.882 380.063 776.831 376.818 771.257 374.142C771.257 374.142 768.142 372.713 764.569 370.937C758.544 367.935 752.351 369.582 748.495 376.618C746.949 379.438 746.04 382.707 745.797 386.027C745.555 389.341 745.979 392.699 747.1 395.697C749.895 403.178 755.788 405.633 762.192 403.463C765.988 402.179 769.281 401.179 769.281 401.179C775.19 399.272 781.654 396.864 787.99 397.288L789.818 397.41C796.169 397.835 801.032 402.848 801.185 408.939C801.619 425.555 804.608 442.024 810.061 457.784C812.006 463.388 809.406 469.501 803.857 472.094L801.486 473.204C795.773 475.869 788.838 475.95 782.617 476.306C782.617 476.306 779.163 476.557 775.139 476.723C768.354 477.013 763.856 481.4 764.19 489.344C764.332 492.518 765.253 495.785 766.771 498.768C768.296 501.759 770.41 504.465 772.946 506.523C779.276 511.669 785.666 510.973 790.082 506.029C792.695 503.101 795.02 500.658 795.02 500.658C799.144 496.177 803.484 491 809.189 488.335L810.799 487.587C816.534 484.91 823.365 486.939 826.687 492.152C835.558 506.079 846.678 518.908 859.919 530.121C864.545 534.043 865.492 540.593 862.037 545.491L860.541 547.625C856.982 552.661 851.022 556.054 845.819 559.332C845.819 559.332 842.96 561.202 839.567 563.271C833.837 566.769 832.235 572.728 836.671 579.443C838.448 582.127 840.953 584.514 843.835 586.375C846.717 588.236 849.97 589.564 853.235 590.127C861.406 591.556 866.572 587.896 867.81 581.506C868.547 577.722 869.288 574.49 869.288 574.49C870.515 568.636 871.564 562.074 875.123 557.038L876.168 555.557C879.728 550.501 886.704 548.975 892.296 551.907C907.835 560.054 924.203 565.726 940.876 569.006C946.926 570.197 951.177 575.404 950.745 581.31L950.562 583.808C950.119 589.872 946.728 595.664 943.932 600.999C943.932 600.999 942.432 603.98 940.576 607.4C937.439 613.167 939.159 619.094 946.517 622.785C949.463 624.264 952.879 625.127 956.334 625.358C959.803 625.59 963.312 625.19 966.444 624.118C974.268 621.442 976.834 615.802 974.566 609.673C973.218 606.04 972.174 602.888 972.174 602.888C970.181 597.233 967.666 591.046 968.109 584.981L968.237 583.232C968.682 577.154 973.928 572.493 980.291 572.346C997.645 571.935 1014.85 569.074 1031.32 563.846C1037.18 561.991 1043.57 564.48 1046.27 569.783L1047.43 572.066C1050.21 577.526 1050.3 584.164 1050.67 590.118C1050.67 590.118 1050.93 593.424 1051.11 597.269C1051.41 603.762 1055.99 608.074 1064.29 607.747C1067.61 607.624 1071.02 606.735 1074.14 605.283C1077.26 603.823 1080.09 601.792 1082.24 599.365C1087.62 593.306 1086.9 587.198 1081.73 582.971C1078.67 580.471 1076.11 578.239 1076.11 578.239C1071.43 574.299 1066.02 570.146 1063.24 564.679L1062.46 563.144C1059.66 557.662 1061.78 551.11 1067.23 547.938C1081.78 539.446 1095.19 528.802 1106.9 516.129C1111 511.701 1117.84 510.794 1122.96 514.094L1125.19 515.532C1130.45 518.931 1134 524.635 1137.43 529.622C1137.43 529.622 1139.38 532.358 1141.54 535.598C1145.2 541.089 1151.42 542.622 1158.43 538.369C1161.24 536.667 1163.74 534.27 1165.68 531.518C1167.62 528.759 1169.01 525.647 1169.6 522.522C1171.1 514.701 1167.28 509.757 1160.59 508.565C1156.64 507.867 1153.26 507.158 1153.26 507.158C1147.15 505.984 1140.3 504.974 1135.03 501.575L1133.49 500.575C1128.2 497.168 1126.6 490.484 1129.67 485.139C1138.18 470.266 1144.11 454.593 1147.54 438.642C1148.78 432.845 1154.23 428.783 1160.39 429.195L1163.01 429.37C1169.34 429.794 1175.39 433.039 1180.96 435.714C1180.96 435.714 1184.08 437.15 1187.65 438.926C1193.68 441.921 1199.87 440.274 1203.73 433.238C1205.27 430.419 1206.17 427.149 1206.42 423.836C1206.66 420.522 1206.24 417.157 1205.12 414.166Z" stroke="white"/>
</g>
<g opacity="0.15">
<path fill-rule="evenodd" clip-rule="evenodd" d="M78.4932 717.445C78.4932 724.693 72.3481 730.572 64.7708 730.572C57.1934 730.572 51.0483 724.693 51.0483 717.445C51.0483 710.194 57.1934 704.318 64.7708 704.318C72.3481 704.318 78.4932 710.194 78.4932 717.445Z" stroke="white"/>
<path fill-rule="evenodd" clip-rule="evenodd" d="M114.76 769.951C114.76 774.612 110.811 778.39 105.939 778.39C101.068 778.39 97.1166 774.612 97.1166 769.951C97.1166 765.291 101.068 761.513 105.939 761.513C110.811 761.513 114.76 765.291 114.76 769.951Z" stroke="white"/>
<path fill-rule="evenodd" clip-rule="evenodd" d="M60.8501 751.199C60.8501 755.86 56.9008 759.638 52.0285 759.638C47.1563 759.638 43.207 755.86 43.207 751.199C43.207 746.538 47.1563 742.761 52.0285 742.761C56.9008 742.761 60.8501 746.538 60.8501 751.199Z" stroke="white"/>
<path fill-rule="evenodd" clip-rule="evenodd" d="M95.1563 751.199C95.1563 755.86 91.2051 759.638 86.3335 759.638C81.4619 759.638 77.5131 755.86 77.5131 751.199C77.5131 746.538 81.4619 742.761 86.3335 742.761C91.2051 742.761 95.1563 746.538 95.1563 751.199Z" stroke="white"/>
<path fill-rule="evenodd" clip-rule="evenodd" d="M128.482 745.573C128.482 749.197 125.411 752.137 121.621 752.137C117.831 752.137 114.76 749.197 114.76 745.573C114.76 741.95 117.831 739.01 121.621 739.01C125.411 739.01 128.482 741.95 128.482 745.573Z" stroke="white"/>
<path fill-rule="evenodd" clip-rule="evenodd" d="M88.295 781.202C88.295 783.791 86.1006 785.891 83.3942 785.891C80.6877 785.891 78.4933 783.791 78.4933 781.202C78.4933 778.612 80.6877 776.515 83.3942 776.515C86.1006 776.515 88.295 778.612 88.295 781.202Z" stroke="white"/>
<path fill-rule="evenodd" clip-rule="evenodd" d="M108.879 720.257C108.879 722.846 106.684 724.946 103.977 724.946C101.269 724.946 99.0769 722.846 99.0769 720.257C99.0769 717.667 101.269 715.57 103.977 715.57C106.684 715.57 108.879 717.667 108.879 720.257Z" stroke="white"/>
<path fill-rule="evenodd" clip-rule="evenodd" d="M163.078 739.259C161.926 736.743 159.832 736.035 157.679 736.928C156.402 737.458 155.292 737.881 155.292 737.881C153.303 738.674 151.135 739.653 148.942 739.653H148.309C146.106 739.653 144.303 738.035 144.094 735.94C143.53 730.224 142.083 724.618 139.805 719.313C138.996 717.426 139.736 715.26 141.583 714.241L142.376 713.801C144.275 712.754 146.667 712.563 148.803 712.3C148.803 712.3 149.985 712.133 151.366 711.981C153.7 711.727 155.141 710.109 154.825 707.382C154.699 706.289 154.299 705.185 153.698 704.192C153.097 703.196 152.297 702.313 151.373 701.662C149.059 700.037 146.878 700.421 145.477 702.227C144.65 703.296 143.908 704.194 143.908 704.194C142.602 705.831 141.236 707.717 139.333 708.767L138.802 709.062C136.892 710.114 134.481 709.573 133.207 707.855C129.797 703.258 125.639 699.096 120.794 695.535C119.098 694.29 118.606 692.054 119.671 690.287L120.138 689.52C121.234 687.7 123.205 686.393 124.919 685.144C124.919 685.144 125.855 684.433 126.973 683.642C128.86 682.305 129.265 680.214 127.564 678.005C126.884 677.119 125.96 676.354 124.919 675.779C123.881 675.206 122.726 674.821 121.584 674.703C118.733 674.399 117.041 675.779 116.773 678.01C116.617 679.33 116.445 680.461 116.445 680.461C116.167 682.507 115.969 684.792 114.873 686.612L114.55 687.144C113.45 688.971 111.081 689.655 109.079 688.776C103.516 686.327 97.7297 684.747 91.9009 684.001C89.78 683.73 88.1856 682.034 88.1856 679.991V679.126C88.1856 677.026 89.2088 674.952 90.0383 673.049C90.0383 673.049 90.4804 671.987 91.0342 670.766C91.9705 668.706 91.2254 666.701 88.5979 665.601C87.5474 665.16 86.3478 664.939 85.1458 664.939C83.9463 664.939 82.7443 665.16 81.6938 665.601C79.0662 666.701 78.3237 668.706 79.2575 670.766C79.8138 671.987 80.2533 673.049 80.2533 673.049C81.0828 674.952 82.106 677.026 82.106 679.126V679.73C82.106 681.837 80.4173 683.561 78.2243 683.759C72.2515 684.3 66.388 685.683 60.8448 687.864C58.8729 688.638 56.608 687.93 55.54 686.163L55.0831 685.405C53.9854 683.585 53.7867 681.302 53.511 679.257C53.511 679.257 53.3372 678.126 53.1807 676.803C52.915 674.572 51.2237 673.192 48.3702 673.496C47.2303 673.617 46.0754 673.999 45.0348 674.574C43.9967 675.147 43.0729 675.912 42.3899 676.798C40.6912 679.01 41.096 681.1 42.9835 682.435C44.1011 683.229 45.0373 683.937 45.0373 683.937C46.7485 685.189 48.7204 686.495 49.8181 688.313L50.1285 688.824C51.2287 690.65 50.66 692.955 48.8644 694.176C44.0613 697.438 39.7077 701.415 35.985 706.049C34.6861 707.67 32.3467 708.142 30.4989 707.121L29.6968 706.677C27.7944 705.627 26.431 703.743 25.1222 702.103C25.1222 702.103 24.3796 701.208 23.5526 700.139C22.1569 698.333 19.9714 697.946 17.6592 699.573C16.7329 700.224 15.9332 701.108 15.3347 702.101C14.7362 703.096 14.3338 704.201 14.2072 705.294C13.8918 708.021 15.3322 709.639 17.6642 709.893C19.0475 710.045 20.2297 710.209 20.2297 710.209C22.368 710.475 24.7571 710.663 26.657 711.713L27.2157 712.022C29.1231 713.074 29.8408 715.341 28.9169 717.255C26.3589 722.577 24.7074 728.112 23.9301 733.688C23.6445 735.714 21.8737 737.239 19.7354 737.239H18.8315C16.636 737.239 14.4679 736.261 12.4787 735.467C12.4787 735.467 11.3685 735.047 10.092 734.517C7.93883 733.621 5.84524 734.332 4.6929 736.845C4.23097 737.852 4 739 4 740.15C4 741.297 4.23097 742.445 4.6929 743.452C5.84524 745.965 7.93883 746.676 10.092 745.78C11.3685 745.25 12.4787 744.83 12.4787 744.83C14.4679 744.036 16.636 743.057 18.8315 743.057H19.4647C21.6651 743.057 23.4681 744.673 23.6743 746.768C24.243 752.484 25.6884 758.091 27.9658 763.395C28.7779 765.282 28.0353 767.448 26.1876 768.47L25.3978 768.907C23.4955 769.957 21.1063 770.145 18.9705 770.411C18.9705 770.411 17.7859 770.577 16.4026 770.727C14.0706 770.983 12.6302 772.599 12.9456 775.328C13.0747 776.419 13.4745 777.523 14.0731 778.517C14.6741 779.512 15.4713 780.396 16.3976 781.047C18.7098 782.674 20.8952 782.287 22.2935 780.481C23.1205 779.412 23.8605 778.517 23.8605 778.517C25.1693 776.877 26.5353 774.993 28.4351 773.943L28.9716 773.649C30.8814 772.594 33.2879 773.136 34.5644 774.856C37.9743 779.45 42.1316 783.615 46.9794 787.173C48.6732 788.418 49.1649 790.654 48.097 792.421L47.6351 793.191C46.5349 795.008 44.5655 796.315 42.8543 797.565C42.8543 797.565 41.9156 798.275 40.798 799.066C38.9105 800.403 38.5082 802.494 40.2069 804.706C40.8874 805.59 41.8113 806.354 42.8519 806.929C43.8924 807.504 45.0473 807.887 46.1872 808.006C49.0407 808.31 50.7295 806.929 50.9952 804.699C51.1542 803.378 51.328 802.247 51.328 802.247C51.6037 800.202 51.7999 797.916 52.9001 796.099L53.2229 795.564C54.3231 793.74 56.6899 793.053 58.6916 793.935C64.2546 796.384 70.0412 797.961 75.8725 798.707C77.9884 798.978 79.5853 800.674 79.5853 802.72V803.584C79.5853 805.685 78.5621 807.758 77.7326 809.661C77.7326 809.661 77.2905 810.723 76.7367 811.944C75.8004 814.004 76.543 816.007 79.173 817.109C80.226 817.551 81.4256 817.77 82.6226 817.77C83.8246 817.77 85.0241 817.551 86.0771 817.109C88.7072 816.007 89.4497 814.004 88.5135 811.944C87.9572 810.723 87.5176 809.661 87.5176 809.661C86.6881 807.758 85.6649 805.685 85.6649 803.584V802.979C85.6649 800.874 87.3561 799.147 89.5466 798.95C95.5194 798.408 101.38 797.025 106.926 794.844C108.901 794.07 111.165 794.78 112.231 796.545L112.688 797.306C113.786 799.123 113.982 801.408 114.26 803.451C114.26 803.451 114.434 804.585 114.593 805.905C114.858 808.136 116.547 809.516 119.401 809.212C120.541 809.094 121.695 808.709 122.736 808.136C123.774 807.561 124.698 806.796 125.379 805.91C127.08 803.698 126.677 801.61 124.79 800.273C123.672 799.482 122.734 798.771 122.734 798.771C121.02 797.522 119.051 796.215 117.953 794.395L117.645 793.885C116.542 792.06 117.108 789.753 118.907 788.535C123.71 785.273 128.063 781.296 131.783 776.659C133.085 775.039 135.422 774.568 137.269 775.587L138.074 776.032C139.974 777.082 141.34 778.966 142.649 780.605C142.649 780.605 143.389 781.503 144.218 782.569C145.617 784.377 147.8 784.762 150.112 783.135C151.036 782.484 151.838 781.6 152.436 780.607C153.037 779.612 153.437 778.507 153.564 777.417C153.882 774.687 152.439 773.072 150.104 772.815C148.726 772.665 147.541 772.499 147.541 772.499C145.405 772.235 143.016 772.045 141.114 770.995L140.558 770.686C138.648 769.634 137.93 767.368 138.851 765.455C141.412 760.134 143.061 754.596 143.841 749.02C144.124 746.994 145.9 745.469 148.035 745.469H148.942C151.135 745.469 153.303 746.447 155.292 747.241C155.292 747.241 156.402 747.664 157.679 748.194C159.832 749.087 161.926 748.377 163.078 745.863C163.54 744.856 163.768 743.708 163.768 742.561C163.768 741.413 163.54 740.264 163.078 739.259Z" stroke="white"/>
</g>
<g opacity="0.15">
<path fill-rule="evenodd" clip-rule="evenodd" d="M782.602 728.506C782.602 741.475 771.607 751.992 758.049 751.992C744.492 751.992 733.497 741.475 733.497 728.506C733.497 715.533 744.492 705.02 758.049 705.02C771.607 705.02 782.602 715.533 782.602 728.506Z" stroke="white"/>
<path fill-rule="evenodd" clip-rule="evenodd" d="M847.419 821.511C847.419 829.813 840.386 836.542 831.708 836.542C823.031 836.542 815.992 829.813 815.992 821.511C815.992 813.209 823.031 806.48 831.708 806.48C840.386 806.48 847.419 813.209 847.419 821.511Z" stroke="white"/>
<path fill-rule="evenodd" clip-rule="evenodd" d="M751.175 788.631C751.175 796.932 744.14 803.662 735.462 803.662C726.783 803.662 719.748 796.932 719.748 788.631C719.748 780.329 726.783 773.6 735.462 773.6C744.14 773.6 751.175 780.329 751.175 788.631Z" stroke="white"/>
<path fill-rule="evenodd" clip-rule="evenodd" d="M812.064 788.631C812.064 796.932 805.026 803.662 796.349 803.662C787.671 803.662 780.637 796.932 780.637 788.631C780.637 780.329 787.671 773.6 796.349 773.6C805.026 773.6 812.064 780.329 812.064 788.631Z" stroke="white"/>
<path fill-rule="evenodd" clip-rule="evenodd" d="M871.971 778.766C871.971 785.249 866.477 790.509 859.695 790.509C852.914 790.509 847.419 785.249 847.419 778.766C847.419 772.284 852.914 767.023 859.695 767.023C866.477 767.023 871.971 772.284 871.971 778.766Z" stroke="white"/>
<path fill-rule="evenodd" clip-rule="evenodd" d="M800.279 842.177C800.279 846.847 796.322 850.634 791.44 850.634C786.559 850.634 782.602 846.847 782.602 842.177C782.602 837.506 786.559 833.724 791.44 833.724C796.322 833.724 800.279 837.506 800.279 842.177Z" stroke="white"/>
<path fill-rule="evenodd" clip-rule="evenodd" d="M836.616 733.201C836.616 737.872 832.658 741.658 827.775 741.658C822.893 741.658 818.939 737.872 818.939 733.201C818.939 728.531 822.893 724.749 827.775 724.749C832.658 724.749 836.616 728.531 836.616 733.201Z" stroke="white"/>
<path fill-rule="evenodd" clip-rule="evenodd" d="M933.594 767.046C931.54 762.561 927.808 761.299 923.969 762.892C921.694 763.836 919.715 764.59 919.715 764.59C916.169 766.004 912.304 767.749 908.395 767.749H907.266C903.339 767.749 900.125 764.865 899.753 761.13C898.748 750.941 896.167 740.946 892.108 731.49C890.664 728.128 891.984 724.265 895.277 722.449L896.69 721.665C900.076 719.798 904.34 719.459 908.147 718.989C908.147 718.989 910.254 718.692 912.716 718.421C916.877 717.968 919.445 715.084 918.883 710.222C918.657 708.274 917.944 706.305 916.873 704.535C915.801 702.761 914.376 701.185 912.729 700.025C908.603 697.128 904.716 697.814 902.219 701.033C900.745 702.939 899.421 704.539 899.421 704.539C897.093 707.457 894.658 710.82 891.266 712.691L890.319 713.217C886.915 715.093 882.616 714.127 880.345 711.065C874.266 702.871 866.855 695.451 858.218 689.103C855.194 686.884 854.318 682.899 856.217 679.748L857.049 678.381C859.002 675.137 862.517 672.807 865.572 670.58C865.572 670.58 867.241 669.314 869.233 667.903C872.597 665.519 873.319 661.793 870.286 657.854C869.073 656.274 867.426 654.911 865.572 653.886C863.721 652.865 861.662 652.179 859.626 651.968C854.544 651.426 851.529 653.886 851.051 657.863C850.772 660.217 850.466 662.233 850.466 662.233C849.97 665.879 849.616 669.953 847.664 673.197L847.088 674.146C845.127 677.402 840.904 678.622 837.335 677.055C827.419 672.689 817.104 669.873 806.713 668.543C802.932 668.06 800.09 665.036 800.09 661.394V659.853C800.09 656.109 801.914 652.412 803.393 649.02C803.393 649.02 804.181 647.127 805.168 644.95C806.837 641.279 805.509 637.705 800.825 635.744C798.952 634.956 796.814 634.562 794.671 634.562C792.533 634.562 790.39 634.956 788.518 635.744C783.834 637.705 782.51 641.279 784.175 644.95C785.166 647.127 785.95 649.02 785.95 649.02C787.429 652.412 789.253 656.109 789.253 659.853V660.929C789.253 664.685 786.242 667.759 782.333 668.111C771.686 669.077 761.233 671.541 751.352 675.429C747.837 676.809 743.8 675.547 741.896 672.397L741.081 671.046C739.125 667.802 738.77 663.732 738.279 660.086C738.279 660.086 737.969 658.07 737.69 655.711C737.216 651.735 734.202 649.274 729.115 649.816C727.083 650.032 725.024 650.714 723.169 651.739C721.319 652.76 719.672 654.123 718.454 655.703C715.426 659.645 716.148 663.372 719.512 665.752C721.505 667.167 723.174 668.429 723.174 668.429C726.224 670.66 729.739 672.99 731.696 676.229L732.249 677.14C734.21 680.396 733.197 684.504 729.996 686.681C721.434 692.495 713.673 699.585 707.037 707.847C704.721 710.735 700.551 711.578 697.257 709.757L695.827 708.965C692.436 707.093 690.006 703.735 687.673 700.813C687.673 700.813 686.349 699.216 684.875 697.31C682.387 694.092 678.491 693.402 674.369 696.302C672.718 697.463 671.292 699.038 670.225 700.808C669.159 702.583 668.441 704.552 668.216 706.5C667.653 711.362 670.221 714.246 674.378 714.699C676.844 714.97 678.951 715.262 678.951 715.262C682.763 715.736 687.022 716.071 690.409 717.943L691.405 718.493C694.805 720.369 696.084 724.409 694.437 727.823C689.877 737.309 686.933 747.176 685.548 757.115C685.039 760.728 681.882 763.446 678.07 763.446H676.459C672.545 763.446 668.68 761.702 665.134 760.287C665.134 760.287 663.155 759.538 660.88 758.593C657.042 756.997 653.309 758.263 651.255 762.743C650.432 764.539 650.02 766.584 650.02 768.634C650.02 770.679 650.432 772.725 651.255 774.521C653.309 779.001 657.042 780.267 660.88 778.671C663.155 777.726 665.134 776.977 665.134 776.977C668.68 775.562 672.545 773.818 676.459 773.818H677.588C681.51 773.818 684.724 776.697 685.092 780.432C686.105 790.621 688.682 800.616 692.742 810.072C694.189 813.435 692.866 817.297 689.572 819.118L688.164 819.897C684.773 821.769 680.514 822.104 676.707 822.578C676.707 822.578 674.595 822.874 672.129 823.141C667.972 823.598 665.404 826.478 665.967 831.344C666.197 833.288 666.91 835.257 667.976 837.027C669.048 838.802 670.469 840.377 672.12 841.537C676.242 844.438 680.138 843.748 682.63 840.529C684.104 838.624 685.424 837.027 685.424 837.027C687.757 834.105 690.192 830.747 693.578 828.875L694.535 828.35C697.939 826.47 702.229 827.435 704.505 830.501C710.583 838.691 717.994 846.115 726.636 852.459C729.655 854.678 730.531 858.663 728.628 861.814L727.804 863.186C725.843 866.426 722.332 868.755 719.282 870.982C719.282 870.982 717.609 872.249 715.617 873.659C712.252 876.043 711.535 879.77 714.563 883.712C715.776 885.288 717.423 886.651 719.278 887.676C721.133 888.701 723.191 889.383 725.223 889.595C730.31 890.137 733.321 887.676 733.794 883.7C734.078 881.345 734.388 879.329 734.388 879.329C734.879 875.683 735.229 871.609 737.19 868.369L737.765 867.417C739.727 864.164 743.946 862.94 747.514 864.511C757.431 868.878 767.746 871.69 778.141 873.019C781.912 873.502 784.759 876.526 784.759 880.172V881.714C784.759 885.457 782.935 889.154 781.456 892.546C781.456 892.546 780.668 894.439 779.681 896.616C778.012 900.288 779.336 903.858 784.024 905.823C785.901 906.61 788.04 907 790.173 907C792.316 907 794.454 906.61 796.332 905.823C801.02 903.858 802.344 900.288 800.675 896.616C799.683 894.439 798.899 892.546 798.899 892.546C797.421 889.154 795.597 885.457 795.597 881.714V880.634C795.597 876.882 798.612 873.803 802.516 873.451C813.163 872.486 823.611 870.021 833.497 866.133C837.017 864.753 841.054 866.019 842.953 869.166L843.768 870.521C845.725 873.76 846.075 877.834 846.57 881.476C846.57 881.476 846.88 883.496 847.164 885.851C847.637 889.828 850.648 892.288 855.734 891.746C857.767 891.534 859.825 890.848 861.68 889.828C863.531 888.803 865.178 887.439 866.391 885.859C869.423 881.917 868.706 878.194 865.341 875.81C863.349 874.4 861.676 873.134 861.676 873.134C858.621 870.906 855.11 868.577 853.153 865.333L852.605 864.423C850.639 861.17 851.648 857.058 854.853 854.886C863.416 849.071 871.176 841.982 877.808 833.716C880.128 830.827 884.294 829.989 887.588 831.806L889.022 832.598C892.409 834.469 894.844 837.828 897.177 840.75C897.177 840.75 898.496 842.35 899.975 844.252C902.467 847.475 906.358 848.161 910.48 845.26C912.127 844.099 913.557 842.524 914.624 840.754C915.695 838.979 916.408 837.01 916.634 835.066C917.2 830.201 914.628 827.321 910.467 826.863C908.01 826.597 905.898 826.3 905.898 826.3C902.091 825.83 897.832 825.491 894.441 823.62L893.449 823.069C890.045 821.193 888.765 817.153 890.408 813.744C894.972 804.258 897.912 794.386 899.302 784.447C899.806 780.835 902.972 778.116 906.779 778.116H908.395C912.304 778.116 916.169 779.861 919.715 781.275C919.715 781.275 921.694 782.029 923.969 782.973C927.808 784.566 931.54 783.299 933.594 778.819C934.417 777.023 934.825 774.978 934.825 772.932C934.825 770.887 934.417 768.837 933.594 767.046Z" stroke="white"/>
</g>
<g opacity="0.15">
<path fill-rule="evenodd" clip-rule="evenodd" d="M782.602 728.506C782.602 741.475 771.607 751.992 758.049 751.992C744.492 751.992 733.497 741.475 733.497 728.506C733.497 715.533 744.492 705.02 758.049 705.02C771.607 705.02 782.602 715.533 782.602 728.506Z" stroke="white"/>
<path fill-rule="evenodd" clip-rule="evenodd" d="M847.419 821.511C847.419 829.813 840.386 836.542 831.708 836.542C823.031 836.542 815.992 829.813 815.992 821.511C815.992 813.209 823.031 806.48 831.708 806.48C840.386 806.48 847.419 813.209 847.419 821.511Z" stroke="white"/>
<path fill-rule="evenodd" clip-rule="evenodd" d="M751.175 788.631C751.175 796.932 744.14 803.662 735.462 803.662C726.783 803.662 719.748 796.932 719.748 788.631C719.748 780.329 726.783 773.6 735.462 773.6C744.14 773.6 751.175 780.329 751.175 788.631Z" stroke="white"/>
<path fill-rule="evenodd" clip-rule="evenodd" d="M812.064 788.631C812.064 796.932 805.026 803.662 796.349 803.662C787.671 803.662 780.637 796.932 780.637 788.631C780.637 780.329 787.671 773.6 796.349 773.6C805.026 773.6 812.064 780.329 812.064 788.631Z" stroke="white"/>
<path fill-rule="evenodd" clip-rule="evenodd" d="M871.971 778.766C871.971 785.249 866.477 790.509 859.695 790.509C852.914 790.509 847.419 785.249 847.419 778.766C847.419 772.284 852.914 767.023 859.695 767.023C866.477 767.023 871.971 772.284 871.971 778.766Z" stroke="white"/>
<path fill-rule="evenodd" clip-rule="evenodd" d="M800.279 842.177C800.279 846.847 796.322 850.634 791.44 850.634C786.559 850.634 782.602 846.847 782.602 842.177C782.602 837.506 786.559 833.724 791.44 833.724C796.322 833.724 800.279 837.506 800.279 842.177Z" stroke="white"/>
<path fill-rule="evenodd" clip-rule="evenodd" d="M836.616 733.201C836.616 737.872 832.658 741.658 827.775 741.658C822.893 741.658 818.939 737.872 818.939 733.201C818.939 728.531 822.893 724.749 827.775 724.749C832.658 724.749 836.616 728.531 836.616 733.201Z" stroke="white"/>
<path fill-rule="evenodd" clip-rule="evenodd" d="M933.594 767.046C931.54 762.561 927.808 761.299 923.969 762.892C921.694 763.836 919.715 764.59 919.715 764.59C916.169 766.004 912.304 767.749 908.395 767.749H907.266C903.339 767.749 900.125 764.865 899.753 761.13C898.748 750.941 896.167 740.946 892.108 731.49C890.664 728.128 891.984 724.265 895.277 722.449L896.69 721.665C900.076 719.798 904.34 719.459 908.147 718.989C908.147 718.989 910.254 718.692 912.716 718.421C916.877 717.968 919.445 715.084 918.883 710.222C918.657 708.274 917.944 706.305 916.873 704.535C915.801 702.761 914.376 701.185 912.729 700.025C908.603 697.128 904.716 697.814 902.219 701.033C900.745 702.939 899.421 704.539 899.421 704.539C897.093 707.457 894.658 710.82 891.266 712.691L890.319 713.217C886.915 715.093 882.616 714.127 880.345 711.065C874.266 702.871 866.855 695.451 858.218 689.103C855.194 686.884 854.318 682.899 856.217 679.748L857.049 678.381C859.002 675.137 862.517 672.807 865.572 670.58C865.572 670.58 867.241 669.314 869.233 667.903C872.597 665.519 873.319 661.793 870.286 657.854C869.073 656.274 867.426 654.911 865.572 653.886C863.721 652.865 861.662 652.179 859.626 651.968C854.544 651.426 851.529 653.886 851.051 657.863C850.772 660.217 850.466 662.233 850.466 662.233C849.97 665.879 849.616 669.953 847.664 673.197L847.088 674.146C845.127 677.402 840.904 678.622 837.335 677.055C827.419 672.689 817.104 669.873 806.713 668.543C802.932 668.06 800.09 665.036 800.09 661.394V659.853C800.09 656.109 801.914 652.412 803.393 649.02C803.393 649.02 804.181 647.127 805.168 644.95C806.837 641.279 805.509 637.705 800.825 635.744C798.952 634.956 796.814 634.562 794.671 634.562C792.533 634.562 790.39 634.956 788.518 635.744C783.834 637.705 782.51 641.279 784.175 644.95C785.166 647.127 785.95 649.02 785.95 649.02C787.429 652.412 789.253 656.109 789.253 659.853V660.929C789.253 664.685 786.242 667.759 782.333 668.111C771.686 669.077 761.233 671.541 751.352 675.429C747.837 676.809 743.8 675.547 741.896 672.397L741.081 671.046C739.125 667.802 738.77 663.732 738.279 660.086C738.279 660.086 737.969 658.07 737.69 655.711C737.216 651.735 734.202 649.274 729.115 649.816C727.083 650.032 725.024 650.714 723.169 651.739C721.319 652.76 719.672 654.123 718.454 655.703C715.426 659.645 716.148 663.372 719.512 665.752C721.505 667.167 723.174 668.429 723.174 668.429C726.224 670.66 729.739 672.99 731.696 676.229L732.249 677.14C734.21 680.396 733.197 684.504 729.996 686.681C721.434 692.495 713.673 699.585 707.037 707.847C704.721 710.735 700.551 711.578 697.257 709.757L695.827 708.965C692.436 707.093 690.006 703.735 687.673 700.813C687.673 700.813 686.349 699.216 684.875 697.31C682.387 694.092 678.491 693.402 674.369 696.302C672.718 697.463 671.292 699.038 670.225 700.808C669.159 702.583 668.441 704.552 668.216 706.5C667.653 711.362 670.221 714.246 674.378 714.699C676.844 714.97 678.951 715.262 678.951 715.262C682.763 715.736 687.022 716.071 690.409 717.943L691.405 718.493C694.805 720.369 696.084 724.409 694.437 727.823C689.877 737.309 686.933 747.176 685.548 757.115C685.039 760.728 681.882 763.446 678.07 763.446H676.459C672.545 763.446 668.68 761.702 665.134 760.287C665.134 760.287 663.155 759.538 660.88 758.593C657.042 756.997 653.309 758.263 651.255 762.743C650.432 764.539 650.02 766.584 650.02 768.634C650.02 770.679 650.432 772.725 651.255 774.521C653.309 779.001 657.042 780.267 660.88 778.671C663.155 777.726 665.134 776.977 665.134 776.977C668.68 775.562 672.545 773.818 676.459 773.818H677.588C681.51 773.818 684.724 776.697 685.092 780.432C686.105 790.621 688.682 800.616 692.742 810.072C694.189 813.435 692.866 817.297 689.572 819.118L688.164 819.897C684.773 821.769 680.514 822.104 676.707 822.578C676.707 822.578 674.595 822.874 672.129 823.141C667.972 823.598 665.404 826.478 665.967 831.344C666.197 833.288 666.91 835.257 667.976 837.027C669.048 838.802 670.469 840.377 672.12 841.537C676.242 844.438 680.138 843.748 682.63 840.529C684.104 838.624 685.424 837.027 685.424 837.027C687.757 834.105 690.192 830.747 693.578 828.875L694.535 828.35C697.939 826.47 702.229 827.435 704.505 830.501C710.583 838.691 717.994 846.115 726.636 852.459C729.655 854.678 730.531 858.663 728.628 861.814L727.804 863.186C725.843 866.426 722.332 868.755 719.282 870.982C719.282 870.982 717.609 872.249 715.617 873.659C712.252 876.043 711.535 879.77 714.563 883.712C715.776 885.288 717.423 886.651 719.278 887.676C721.133 888.701 723.191 889.383 725.223 889.595C730.31 890.137 733.321 887.676 733.794 883.7C734.078 881.345 734.388 879.329 734.388 879.329C734.879 875.683 735.229 871.609 737.19 868.369L737.765 867.417C739.727 864.164 743.946 862.94 747.514 864.511C757.431 868.878 767.746 871.69 778.141 873.019C781.912 873.502 784.759 876.526 784.759 880.172V881.714C784.759 885.457 782.935 889.154 781.456 892.546C781.456 892.546 780.668 894.439 779.681 896.616C778.012 900.288 779.336 903.858 784.024 905.823C785.901 906.61 788.04 907 790.173 907C792.316 907 794.454 906.61 796.332 905.823C801.02 903.858 802.344 900.288 800.675 896.616C799.683 894.439 798.899 892.546 798.899 892.546C797.421 889.154 795.597 885.457 795.597 881.714V880.634C795.597 876.882 798.612 873.803 802.516 873.451C813.163 872.486 823.611 870.021 833.497 866.133C837.017 864.753 841.054 866.019 842.953 869.166L843.768 870.521C845.725 873.76 846.075 877.834 846.57 881.476C846.57 881.476 846.88 883.496 847.164 885.851C847.637 889.828 850.648 892.288 855.734 891.746C857.767 891.534 859.825 890.848 861.68 889.828C863.531 888.803 865.178 887.439 866.391 885.859C869.423 881.917 868.706 878.194 865.341 875.81C863.349 874.4 861.676 873.134 861.676 873.134C858.621 870.906 855.11 868.577 853.153 865.333L852.605 864.423C850.639 861.17 851.648 857.058 854.853 854.886C863.416 849.071 871.176 841.982 877.808 833.716C880.128 830.827 884.294 829.989 887.588 831.806L889.022 832.598C892.409 834.469 894.844 837.828 897.177 840.75C897.177 840.75 898.496 842.35 899.975 844.252C902.467 847.475 906.358 848.161 910.48 845.26C912.127 844.099 913.557 842.524 914.624 840.754C915.695 838.979 916.408 837.01 916.634 835.066C917.2 830.201 914.628 827.321 910.467 826.863C908.01 826.597 905.898 826.3 905.898 826.3C902.091 825.83 897.832 825.491 894.441 823.62L893.449 823.069C890.045 821.193 888.765 817.153 890.408 813.744C894.972 804.258 897.912 794.386 899.302 784.447C899.806 780.835 902.972 778.116 906.779 778.116H908.395C912.304 778.116 916.169 779.861 919.715 781.275C919.715 781.275 921.694 782.029 923.969 782.973C927.808 784.566 931.54 783.299 933.594 778.819C934.417 777.023 934.825 774.978 934.825 772.932C934.825 770.887 934.417 768.837 933.594 767.046Z" stroke="white"/>
</g>
<g opacity="0.15">
<path fill-rule="evenodd" clip-rule="evenodd" d="M1302.59 87.7614C1302.59 98.6342 1293.38 107.452 1282.01 107.452C1270.64 107.452 1261.43 98.6342 1261.43 87.7614C1261.43 76.885 1270.64 68.071 1282.01 68.071C1293.38 68.071 1302.59 76.885 1302.59 87.7614Z" stroke="white"/>
<path fill-rule="evenodd" clip-rule="evenodd" d="M1357.49 166.992C1357.49 173.983 1351.56 179.65 1344.25 179.65C1336.95 179.65 1331.02 173.983 1331.02 166.992C1331.02 160.001 1336.95 154.334 1344.25 154.334C1351.56 154.334 1357.49 160.001 1357.49 166.992Z" stroke="white"/>
<path fill-rule="evenodd" clip-rule="evenodd" d="M1276.13 138.863C1276.13 145.854 1270.2 151.521 1262.9 151.521C1255.59 151.521 1249.66 145.854 1249.66 138.863C1249.66 131.871 1255.59 126.205 1262.9 126.205C1270.2 126.205 1276.13 131.871 1276.13 138.863Z" stroke="white"/>
<path fill-rule="evenodd" clip-rule="evenodd" d="M1327.1 138.863C1327.1 145.854 1321.17 151.521 1313.86 151.521C1306.56 151.521 1300.63 145.854 1300.63 138.863C1300.63 131.871 1306.56 126.205 1313.86 126.205C1321.17 126.205 1327.1 131.871 1327.1 138.863Z" stroke="white"/>
<path fill-rule="evenodd" clip-rule="evenodd" d="M1378.07 130.424C1378.07 135.859 1373.46 140.269 1367.78 140.269C1362.09 140.269 1357.49 135.859 1357.49 130.424C1357.49 124.989 1362.09 120.579 1367.78 120.579C1373.46 120.579 1378.07 124.989 1378.07 130.424Z" stroke="white"/>
<path fill-rule="evenodd" clip-rule="evenodd" d="M1317.3 183.867C1317.3 187.752 1314.01 190.901 1309.95 190.901C1305.89 190.901 1302.59 187.752 1302.59 183.867C1302.59 179.983 1305.89 176.837 1309.95 176.837C1314.01 176.837 1317.3 179.983 1317.3 183.867Z" stroke="white"/>
<path fill-rule="evenodd" clip-rule="evenodd" d="M1347.68 91.9791C1347.68 95.8636 1344.39 99.0131 1340.33 99.0131C1336.27 99.0131 1332.98 95.8636 1332.98 91.9791C1332.98 88.0946 1336.27 84.9486 1340.33 84.9486C1344.39 84.9486 1347.68 88.0946 1347.68 91.9791Z" stroke="white"/>
<path fill-rule="evenodd" clip-rule="evenodd" d="M1429.96 120.711C1428.23 116.929 1425.08 115.865 1421.85 117.208C1419.93 118.004 1418.26 118.64 1418.26 118.64C1415.27 119.833 1412.01 121.304 1408.71 121.304H1407.76C1404.45 121.304 1401.74 118.872 1401.43 115.722C1400.58 107.131 1398.4 98.7037 1394.98 90.73C1393.76 87.8947 1394.88 84.6381 1397.65 83.1062L1398.84 82.4456C1401.7 80.8708 1405.29 80.5851 1408.51 80.1888C1408.51 80.1888 1410.28 79.9388 1412.36 79.7103C1415.87 79.3282 1418.03 76.8964 1417.56 72.7971C1417.37 71.1545 1416.77 69.494 1415.86 68.0014C1414.96 66.5052 1413.76 65.1769 1412.37 64.1984C1408.89 61.756 1405.61 62.3345 1403.51 65.0483C1402.26 66.6552 1401.15 68.005 1401.15 68.005C1399.18 70.4653 1397.13 73.3006 1394.27 74.8789L1393.47 75.3217C1390.6 76.9036 1386.98 76.0894 1385.06 73.5077C1379.94 66.5981 1373.69 60.3419 1366.4 54.9892C1363.86 53.118 1363.12 49.7579 1364.72 47.1011L1365.42 45.9477C1367.07 43.2125 1370.03 41.2485 1372.61 39.3702C1372.61 39.3702 1374.01 38.3025 1375.69 37.1134C1378.53 35.103 1379.14 31.9607 1376.58 28.6398C1375.56 27.3078 1374.17 26.158 1372.61 25.2939C1371.04 24.4333 1369.31 23.8548 1367.59 23.6763C1363.31 23.2192 1360.76 25.2939 1360.36 28.6469C1360.13 30.6323 1359.87 32.332 1359.87 32.332C1359.45 35.4066 1359.15 38.8417 1357.51 41.577L1357.02 42.3769C1355.37 45.1229 1351.81 46.1513 1348.8 44.8301C1340.43 41.1485 1331.74 38.7739 1322.98 37.6526C1319.79 37.2455 1317.39 34.696 1317.39 31.625V30.3252C1317.39 27.1686 1318.93 24.0512 1320.18 21.1909C1320.18 21.1909 1320.84 19.5948 1321.67 17.7593C1323.08 14.6634 1321.96 11.6496 1318.01 9.99627C1316.43 9.33209 1314.63 9 1312.82 9C1311.02 9 1309.21 9.33209 1307.63 9.99627C1303.68 11.6496 1302.57 14.6634 1303.97 17.7593C1304.81 19.5948 1305.47 21.1909 1305.47 21.1909C1306.71 24.0512 1308.25 27.1686 1308.25 30.3252V31.2322C1308.25 34.3996 1305.71 36.992 1302.42 37.2884C1293.44 38.1026 1284.63 40.1808 1276.29 43.4589C1273.33 44.623 1269.93 43.5588 1268.32 40.9021L1267.63 39.763C1265.98 37.0277 1265.69 33.5961 1265.27 30.5216C1265.27 30.5216 1265.01 28.8219 1264.78 26.8329C1264.38 23.4799 1261.83 21.4052 1257.54 21.8623C1255.83 22.0444 1254.1 22.6193 1252.53 23.4834C1250.97 24.344 1249.58 25.4938 1248.56 26.8258C1246 30.1502 1246.61 33.2926 1249.45 35.2994C1251.13 36.4921 1252.53 37.5562 1252.53 37.5562C1255.11 39.4381 1258.07 41.402 1259.72 44.1337L1260.19 44.9015C1261.84 47.6475 1260.99 51.1112 1258.29 52.9466C1251.07 57.8494 1244.52 63.8271 1238.93 70.7938C1236.98 73.2292 1233.46 73.9398 1230.68 72.4043L1229.48 71.7365C1226.62 70.1582 1224.57 67.3265 1222.6 64.8626C1222.6 64.8626 1221.48 63.5164 1220.24 61.9095C1218.14 59.1957 1214.86 58.6136 1211.38 61.0597C1209.99 62.0381 1208.79 63.3664 1207.89 64.8591C1206.99 66.3552 1206.38 68.0157 1206.19 69.6583C1205.72 73.7576 1207.88 76.1894 1211.39 76.5715C1213.47 76.8 1215.25 77.0464 1215.25 77.0464C1218.46 77.4464 1222.05 77.7285 1224.91 79.3068L1225.75 79.771C1228.61 81.3529 1229.69 84.7595 1228.3 87.6376C1224.46 95.6363 1221.98 103.956 1220.81 112.337C1220.38 115.383 1217.72 117.676 1214.5 117.676H1213.14C1209.84 117.676 1206.59 116.205 1203.6 115.012C1203.6 115.012 1201.93 114.38 1200.01 113.584C1196.77 112.237 1193.62 113.305 1191.89 117.083C1191.2 118.597 1190.85 120.322 1190.85 122.05C1190.85 123.775 1191.2 125.499 1191.89 127.014C1193.62 130.792 1196.77 131.859 1200.01 130.513C1201.93 129.717 1203.6 129.085 1203.6 129.085C1206.59 127.892 1209.84 126.421 1213.14 126.421H1214.1C1217.4 126.421 1220.11 128.849 1220.42 131.998C1221.28 140.59 1223.45 149.017 1226.87 156.991C1228.09 159.826 1226.98 163.083 1224.2 164.618L1223.01 165.275C1220.15 166.854 1216.56 167.136 1213.35 167.536C1213.35 167.536 1211.57 167.786 1209.49 168.011C1205.99 168.396 1203.82 170.824 1204.3 174.927C1204.49 176.566 1205.09 178.227 1205.99 179.72C1206.9 181.216 1208.09 182.544 1209.49 183.522C1212.96 185.969 1216.25 185.386 1218.35 182.673C1219.59 181.066 1220.7 179.72 1220.7 179.72C1222.67 177.256 1224.72 174.424 1227.58 172.846L1228.39 172.403C1231.26 170.817 1234.87 171.632 1236.79 174.217C1241.92 181.123 1248.17 187.383 1255.45 192.732C1258 194.603 1258.74 197.963 1257.13 200.62L1256.44 201.777C1254.79 204.508 1251.83 206.472 1249.25 208.351C1249.25 208.351 1247.84 209.418 1246.16 210.608C1243.33 212.618 1242.72 215.76 1245.27 219.085C1246.3 220.413 1247.69 221.563 1249.25 222.427C1250.81 223.291 1252.55 223.866 1254.26 224.045C1258.55 224.502 1261.09 222.427 1261.49 219.074C1261.73 217.089 1261.99 215.389 1261.99 215.389C1262.4 212.314 1262.7 208.879 1264.35 206.147L1264.84 205.344C1266.49 202.602 1270.05 201.57 1273.06 202.894C1281.42 206.576 1290.12 208.947 1298.88 210.068C1302.06 210.475 1304.46 213.025 1304.46 216.099V217.399C1304.46 220.556 1302.93 223.673 1301.68 226.534C1301.68 226.534 1301.01 228.13 1300.18 229.965C1298.77 233.061 1299.89 236.071 1303.84 237.728C1305.43 238.392 1307.23 238.721 1309.03 238.721C1310.84 238.721 1312.64 238.392 1314.22 237.728C1318.18 236.071 1319.29 233.061 1317.88 229.965C1317.05 228.13 1316.39 226.534 1316.39 226.534C1315.14 223.673 1313.6 220.556 1313.6 217.399V216.489C1313.6 213.325 1316.14 210.729 1319.44 210.433C1328.41 209.618 1337.22 207.54 1345.56 204.262C1348.53 203.098 1351.93 204.166 1353.53 206.819L1354.22 207.961C1355.87 210.693 1356.17 214.128 1356.58 217.199C1356.58 217.199 1356.84 218.903 1357.08 220.888C1357.48 224.241 1360.02 226.316 1364.31 225.859C1366.02 225.68 1367.76 225.102 1369.32 224.241C1370.88 223.377 1372.27 222.227 1373.3 220.895C1375.85 217.571 1375.25 214.432 1372.41 212.422C1370.73 211.232 1369.32 210.165 1369.32 210.165C1366.74 208.286 1363.78 206.322 1362.13 203.587L1361.67 202.819C1360.01 200.077 1360.87 196.61 1363.57 194.778C1370.79 189.875 1377.33 183.897 1382.92 176.927C1384.88 174.492 1388.39 173.785 1391.17 175.317L1392.38 175.984C1395.23 177.563 1397.29 180.394 1399.25 182.858C1399.25 182.858 1400.37 184.208 1401.61 185.811C1403.72 188.529 1407 189.107 1410.47 186.661C1411.86 185.683 1413.07 184.355 1413.97 182.862C1414.87 181.366 1415.47 179.705 1415.66 178.066C1416.14 173.963 1413.97 171.535 1410.46 171.149C1408.39 170.924 1406.61 170.675 1406.61 170.675C1403.4 170.278 1399.81 169.992 1396.95 168.414L1396.11 167.95C1393.24 166.368 1392.16 162.961 1393.55 160.087C1397.4 152.088 1399.87 143.764 1401.05 135.384C1401.47 132.338 1404.14 130.045 1407.35 130.045H1408.71C1412.01 130.045 1415.27 131.516 1418.26 132.709C1418.26 132.709 1419.93 133.345 1421.85 134.141C1425.08 135.484 1428.23 134.416 1429.96 130.638C1430.66 129.124 1431 127.399 1431 125.674C1431 123.95 1430.66 122.221 1429.96 120.711Z" stroke="white"/>
</g>
<g opacity="0.15">
<path fill-rule="evenodd" clip-rule="evenodd" d="M481.852 283.963C481.852 286.537 479.67 288.625 476.979 288.625C474.288 288.625 472.106 286.537 472.106 283.963C472.106 281.388 474.288 279.302 476.979 279.302C479.67 279.302 481.852 281.388 481.852 283.963Z" stroke="white"/>
<path fill-rule="evenodd" clip-rule="evenodd" d="M494.522 302.61C494.522 304.154 493.214 305.406 491.599 305.406C489.984 305.406 488.675 304.154 488.675 302.61C488.675 301.065 489.984 299.813 491.599 299.813C493.214 299.813 494.522 301.065 494.522 302.61Z" stroke="white"/>
<path fill-rule="evenodd" clip-rule="evenodd" d="M476.004 296.083C476.004 297.628 474.695 298.88 473.081 298.88C471.466 298.88 470.157 297.628 470.157 296.083C470.157 294.539 471.466 293.286 473.081 293.286C474.695 293.286 476.004 294.539 476.004 296.083Z" stroke="white"/>
<path fill-rule="evenodd" clip-rule="evenodd" d="M487.7 296.083C487.7 297.628 486.39 298.88 484.776 298.88C483.161 298.88 481.852 297.628 481.852 296.083C481.852 294.539 483.161 293.286 484.776 293.286C486.39 293.286 487.7 294.539 487.7 296.083Z" stroke="white"/>
<path fill-rule="evenodd" clip-rule="evenodd" d="M499.396 293.753C499.396 295.039 498.305 296.083 496.959 296.083C495.613 296.083 494.522 295.039 494.522 293.753C494.522 292.466 495.613 291.422 496.959 291.422C498.305 291.422 499.396 292.466 499.396 293.753Z" stroke="white"/>
<path fill-rule="evenodd" clip-rule="evenodd" d="M484.776 305.872C484.776 306.645 484.122 307.271 483.314 307.271C482.507 307.271 481.852 306.645 481.852 305.872C481.852 305.1 482.507 304.474 483.314 304.474C484.122 304.474 484.776 305.1 484.776 305.872Z" stroke="white"/>
<path fill-rule="evenodd" clip-rule="evenodd" d="M492.573 285.361C492.573 286.134 491.918 286.76 491.111 286.76C490.303 286.76 489.649 286.134 489.649 285.361C489.649 284.589 490.303 283.963 491.111 283.963C491.918 283.963 492.573 284.589 492.573 285.361Z" stroke="white"/>
<path fill-rule="evenodd" clip-rule="evenodd" d="M510.855 291.638C510.462 290.779 509.746 290.537 509.011 290.842C508.575 291.023 508.195 291.168 508.195 291.168C507.516 291.439 506.775 291.773 506.026 291.773H505.81C505.057 291.773 504.441 291.22 504.37 290.505C504.177 288.552 503.683 286.637 502.905 284.824C502.628 284.18 502.881 283.44 503.512 283.092L503.783 282.942C504.432 282.584 505.249 282.519 505.979 282.429C505.979 282.429 506.382 282.372 506.854 282.32C507.652 282.233 508.144 281.68 508.036 280.749C507.993 280.375 507.856 279.998 507.651 279.659C507.446 279.319 507.172 279.017 506.857 278.795C506.066 278.239 505.321 278.371 504.843 278.988C504.56 279.353 504.306 279.66 504.306 279.66C503.86 280.219 503.394 280.863 502.744 281.222L502.562 281.323C501.91 281.682 501.086 281.497 500.651 280.91C499.486 279.34 498.066 277.918 496.41 276.702C495.831 276.276 495.663 275.513 496.027 274.909L496.186 274.647C496.561 274.025 497.234 273.579 497.82 273.152C497.82 273.152 498.139 272.909 498.521 272.639C499.166 272.182 499.304 271.468 498.723 270.713C498.491 270.41 498.175 270.149 497.82 269.953C497.465 269.757 497.07 269.626 496.68 269.585C495.706 269.481 495.128 269.953 495.037 270.715C494.983 271.166 494.925 271.552 494.925 271.552C494.83 272.251 494.762 273.032 494.388 273.653L494.277 273.835C493.902 274.459 493.092 274.693 492.408 274.393C490.508 273.556 488.531 273.016 486.54 272.761C485.816 272.669 485.271 272.089 485.271 271.391V271.096C485.271 270.379 485.62 269.67 485.904 269.02C485.904 269.02 486.055 268.657 486.244 268.24C486.564 267.537 486.309 266.852 485.412 266.476C485.053 266.325 484.643 266.249 484.232 266.249C483.823 266.249 483.412 266.325 483.053 266.476C482.156 266.852 481.902 267.537 482.221 268.24C482.411 268.657 482.561 269.02 482.561 269.02C482.844 269.67 483.194 270.379 483.194 271.096V271.302C483.194 272.022 482.617 272.611 481.868 272.679C479.828 272.864 477.824 273.336 475.931 274.081C475.257 274.346 474.483 274.104 474.119 273.5L473.963 273.241C473.588 272.619 473.52 271.839 473.426 271.141C473.426 271.141 473.366 270.754 473.313 270.302C473.222 269.54 472.644 269.069 471.669 269.173C471.28 269.214 470.885 269.345 470.53 269.541C470.175 269.737 469.86 269.998 469.626 270.301C469.046 271.056 469.184 271.77 469.829 272.227C470.211 272.498 470.531 272.739 470.531 272.739C471.115 273.167 471.789 273.614 472.164 274.234L472.27 274.409C472.646 275.033 472.452 275.82 471.838 276.237C470.197 277.352 468.71 278.71 467.438 280.294C466.995 280.847 466.195 281.008 465.564 280.66L465.29 280.508C464.64 280.149 464.175 279.505 463.727 278.946C463.727 278.946 463.474 278.64 463.191 278.274C462.714 277.658 461.968 277.525 461.178 278.081C460.862 278.304 460.588 278.605 460.384 278.945C460.179 279.285 460.042 279.662 459.999 280.035C459.891 280.967 460.383 281.52 461.18 281.607C461.652 281.659 462.056 281.715 462.056 281.715C462.787 281.805 463.603 281.87 464.252 282.228L464.443 282.334C465.094 282.693 465.339 283.468 465.024 284.122C464.15 285.94 463.586 287.83 463.32 289.735C463.223 290.427 462.618 290.948 461.887 290.948H461.578C460.828 290.948 460.088 290.614 459.408 290.343C459.408 290.343 459.029 290.199 458.593 290.018C457.857 289.712 457.142 289.955 456.749 290.814C456.591 291.158 456.512 291.55 456.512 291.943C456.512 292.335 456.591 292.727 456.749 293.071C457.142 293.929 457.857 294.172 458.593 293.866C459.029 293.685 459.408 293.541 459.408 293.541C460.088 293.27 460.828 292.936 461.578 292.936H461.795C462.546 292.936 463.162 293.488 463.233 294.204C463.427 296.156 463.921 298.072 464.699 299.884C464.976 300.528 464.723 301.268 464.091 301.617L463.822 301.767C463.172 302.125 462.356 302.189 461.626 302.28C461.626 302.28 461.221 302.337 460.749 302.388C459.952 302.476 459.46 303.028 459.568 303.96C459.612 304.333 459.748 304.71 459.953 305.049C460.158 305.389 460.431 305.691 460.747 305.914C461.537 306.47 462.283 306.337 462.761 305.72C463.044 305.355 463.296 305.049 463.296 305.049C463.744 304.489 464.21 303.846 464.859 303.487L465.042 303.386C465.695 303.026 466.517 303.211 466.953 303.799C468.118 305.368 469.538 306.791 471.194 308.007C471.773 308.432 471.941 309.196 471.576 309.799L471.418 310.062C471.042 310.683 470.37 311.13 469.785 311.556C469.785 311.556 469.464 311.799 469.083 312.069C468.438 312.526 468.3 313.24 468.881 313.996C469.113 314.298 469.429 314.559 469.784 314.756C470.14 314.952 470.534 315.083 470.924 315.123C471.898 315.227 472.475 314.756 472.566 313.994C472.62 313.542 472.68 313.156 472.68 313.156C472.774 312.457 472.841 311.677 473.217 311.056L473.327 310.873C473.703 310.25 474.511 310.015 475.195 310.316C477.096 311.153 479.072 311.692 481.065 311.947C481.787 312.039 482.333 312.619 482.333 313.318V313.613C482.333 314.33 481.983 315.039 481.7 315.689C481.7 315.689 481.549 316.052 481.36 316.469C481.04 317.172 481.294 317.857 482.192 318.233C482.552 318.384 482.962 318.459 483.37 318.459C483.781 318.459 484.191 318.384 484.551 318.233C485.449 317.857 485.703 317.172 485.383 316.469C485.193 316.052 485.043 315.689 485.043 315.689C484.759 315.039 484.41 314.33 484.41 313.613V313.406C484.41 312.687 484.988 312.097 485.736 312.03C487.776 311.845 489.778 311.372 491.673 310.627C492.347 310.363 493.121 310.605 493.485 311.208L493.641 311.468C494.016 312.089 494.083 312.87 494.178 313.567C494.178 313.567 494.238 313.955 494.292 314.406C494.383 315.168 494.96 315.639 495.934 315.536C496.324 315.495 496.718 315.363 497.074 315.168C497.428 314.971 497.744 314.71 497.977 314.407C498.558 313.652 498.42 312.939 497.775 312.482C497.394 312.211 497.073 311.969 497.073 311.969C496.488 311.542 495.815 311.095 495.44 310.474L495.335 310.299C494.958 309.676 495.151 308.888 495.766 308.472C497.406 307.357 498.894 305.999 500.165 304.415C500.609 303.861 501.407 303.701 502.039 304.049L502.314 304.2C502.963 304.559 503.429 305.203 503.876 305.763C503.876 305.763 504.129 306.069 504.412 306.434C504.89 307.051 505.636 307.183 506.426 306.627C506.741 306.405 507.015 306.103 507.22 305.764C507.425 305.423 507.562 305.046 507.605 304.674C507.714 303.741 507.221 303.189 506.423 303.102C505.952 303.05 505.548 302.994 505.548 302.994C504.818 302.904 504.002 302.839 503.352 302.48L503.162 302.374C502.51 302.015 502.264 301.241 502.579 300.587C503.454 298.769 504.017 296.878 504.284 294.973C504.38 294.281 504.987 293.76 505.716 293.76H506.026C506.775 293.76 507.516 294.094 508.195 294.365C508.195 294.365 508.575 294.51 509.011 294.691C509.746 294.996 510.462 294.753 510.855 293.894C511.013 293.55 511.091 293.158 511.091 292.766C511.091 292.374 511.013 291.982 510.855 291.638Z" stroke="white"/>
</g>
<g opacity="0.15">
<path fill-rule="evenodd" clip-rule="evenodd" d="M481.852 283.963C481.852 286.537 479.67 288.625 476.979 288.625C474.288 288.625 472.106 286.537 472.106 283.963C472.106 281.388 474.288 279.302 476.979 279.302C479.67 279.302 481.852 281.388 481.852 283.963Z" stroke="white"/>
<path fill-rule="evenodd" clip-rule="evenodd" d="M494.522 302.61C494.522 304.154 493.214 305.406 491.599 305.406C489.984 305.406 488.675 304.154 488.675 302.61C488.675 301.065 489.984 299.813 491.599 299.813C493.214 299.813 494.522 301.065 494.522 302.61Z" stroke="white"/>
<path fill-rule="evenodd" clip-rule="evenodd" d="M476.004 296.083C476.004 297.628 474.695 298.88 473.081 298.88C471.466 298.88 470.157 297.628 470.157 296.083C470.157 294.539 471.466 293.286 473.081 293.286C474.695 293.286 476.004 294.539 476.004 296.083Z" stroke="white"/>
<path fill-rule="evenodd" clip-rule="evenodd" d="M487.7 296.083C487.7 297.628 486.39 298.88 484.776 298.88C483.161 298.88 481.852 297.628 481.852 296.083C481.852 294.539 483.161 293.286 484.776 293.286C486.39 293.286 487.7 294.539 487.7 296.083Z" stroke="white"/>
<path fill-rule="evenodd" clip-rule="evenodd" d="M499.396 293.753C499.396 295.039 498.305 296.083 496.959 296.083C495.613 296.083 494.522 295.039 494.522 293.753C494.522 292.466 495.613 291.422 496.959 291.422C498.305 291.422 499.396 292.466 499.396 293.753Z" stroke="white"/>
<path fill-rule="evenodd" clip-rule="evenodd" d="M484.776 305.872C484.776 306.645 484.122 307.271 483.314 307.271C482.507 307.271 481.852 306.645 481.852 305.872C481.852 305.1 482.507 304.474 483.314 304.474C484.122 304.474 484.776 305.1 484.776 305.872Z" stroke="white"/>
<path fill-rule="evenodd" clip-rule="evenodd" d="M492.573 285.361C492.573 286.134 491.918 286.76 491.111 286.76C490.303 286.76 489.649 286.134 489.649 285.361C489.649 284.589 490.303 283.963 491.111 283.963C491.918 283.963 492.573 284.589 492.573 285.361Z" stroke="white"/>
<path fill-rule="evenodd" clip-rule="evenodd" d="M510.855 291.638C510.462 290.779 509.746 290.537 509.011 290.842C508.575 291.023 508.195 291.168 508.195 291.168C507.516 291.439 506.775 291.773 506.026 291.773H505.81C505.057 291.773 504.441 291.22 504.37 290.505C504.177 288.552 503.683 286.637 502.905 284.824C502.628 284.18 502.881 283.44 503.512 283.092L503.783 282.942C504.432 282.584 505.249 282.519 505.979 282.429C505.979 282.429 506.382 282.372 506.854 282.32C507.652 282.233 508.144 281.68 508.036 280.749C507.993 280.375 507.856 279.998 507.651 279.659C507.446 279.319 507.172 279.017 506.857 278.795C506.066 278.239 505.321 278.371 504.843 278.988C504.56 279.353 504.306 279.66 504.306 279.66C503.86 280.219 503.394 280.863 502.744 281.222L502.562 281.323C501.91 281.682 501.086 281.497 500.651 280.91C499.486 279.34 498.066 277.918 496.41 276.702C495.831 276.276 495.663 275.513 496.027 274.909L496.186 274.647C496.561 274.025 497.234 273.579 497.82 273.152C497.82 273.152 498.139 272.909 498.521 272.639C499.166 272.182 499.304 271.468 498.723 270.713C498.491 270.41 498.175 270.149 497.82 269.953C497.465 269.757 497.07 269.626 496.68 269.585C495.706 269.481 495.128 269.953 495.037 270.715C494.983 271.166 494.925 271.552 494.925 271.552C494.83 272.251 494.762 273.032 494.388 273.653L494.277 273.835C493.902 274.459 493.092 274.693 492.408 274.393C490.508 273.556 488.531 273.016 486.54 272.761C485.816 272.669 485.271 272.089 485.271 271.391V271.096C485.271 270.379 485.62 269.67 485.904 269.02C485.904 269.02 486.055 268.657 486.244 268.24C486.564 267.537 486.309 266.852 485.412 266.476C485.053 266.325 484.643 266.249 484.232 266.249C483.823 266.249 483.412 266.325 483.053 266.476C482.156 266.852 481.902 267.537 482.221 268.24C482.411 268.657 482.561 269.02 482.561 269.02C482.844 269.67 483.194 270.379 483.194 271.096V271.302C483.194 272.022 482.617 272.611 481.868 272.679C479.828 272.864 477.824 273.336 475.931 274.081C475.257 274.346 474.483 274.104 474.119 273.5L473.963 273.241C473.588 272.619 473.52 271.839 473.426 271.141C473.426 271.141 473.366 270.754 473.313 270.302C473.222 269.54 472.644 269.069 471.669 269.173C471.28 269.214 470.885 269.345 470.53 269.541C470.175 269.737 469.86 269.998 469.626 270.301C469.046 271.056 469.184 271.77 469.829 272.227C470.211 272.498 470.531 272.739 470.531 272.739C471.115 273.167 471.789 273.614 472.164 274.234L472.27 274.409C472.646 275.033 472.452 275.82 471.838 276.237C470.197 277.352 468.71 278.71 467.438 280.294C466.995 280.847 466.195 281.008 465.564 280.66L465.29 280.508C464.64 280.149 464.175 279.505 463.727 278.946C463.727 278.946 463.474 278.64 463.191 278.274C462.714 277.658 461.968 277.525 461.178 278.081C460.862 278.304 460.588 278.605 460.384 278.945C460.179 279.285 460.042 279.662 459.999 280.035C459.891 280.967 460.383 281.52 461.18 281.607C461.652 281.659 462.056 281.715 462.056 281.715C462.787 281.805 463.603 281.87 464.252 282.228L464.443 282.334C465.094 282.693 465.339 283.468 465.024 284.122C464.15 285.94 463.586 287.83 463.32 289.735C463.223 290.427 462.618 290.948 461.887 290.948H461.578C460.828 290.948 460.088 290.614 459.408 290.343C459.408 290.343 459.029 290.199 458.593 290.018C457.857 289.712 457.142 289.955 456.749 290.814C456.591 291.158 456.512 291.55 456.512 291.943C456.512 292.335 456.591 292.727 456.749 293.071C457.142 293.929 457.857 294.172 458.593 293.866C459.029 293.685 459.408 293.541 459.408 293.541C460.088 293.27 460.828 292.936 461.578 292.936H461.795C462.546 292.936 463.162 293.488 463.233 294.204C463.427 296.156 463.921 298.072 464.699 299.884C464.976 300.528 464.723 301.268 464.091 301.617L463.822 301.767C463.172 302.125 462.356 302.189 461.626 302.28C461.626 302.28 461.221 302.337 460.749 302.388C459.952 302.476 459.46 303.028 459.568 303.96C459.612 304.333 459.748 304.71 459.953 305.049C460.158 305.389 460.431 305.691 460.747 305.914C461.537 306.47 462.283 306.337 462.761 305.72C463.044 305.355 463.296 305.049 463.296 305.049C463.744 304.489 464.21 303.846 464.859 303.487L465.042 303.386C465.695 303.026 466.517 303.211 466.953 303.799C468.118 305.368 469.538 306.791 471.194 308.007C471.773 308.432 471.941 309.196 471.576 309.799L471.418 310.062C471.042 310.683 470.37 311.13 469.785 311.556C469.785 311.556 469.464 311.799 469.083 312.069C468.438 312.526 468.3 313.24 468.881 313.996C469.113 314.298 469.429 314.559 469.784 314.756C470.14 314.952 470.534 315.083 470.924 315.123C471.898 315.227 472.475 314.756 472.566 313.994C472.62 313.542 472.68 313.156 472.68 313.156C472.774 312.457 472.841 311.677 473.217 311.056L473.327 310.873C473.703 310.25 474.511 310.015 475.195 310.316C477.096 311.153 479.072 311.692 481.065 311.947C481.787 312.039 482.333 312.619 482.333 313.318V313.613C482.333 314.33 481.983 315.039 481.7 315.689C481.7 315.689 481.549 316.052 481.36 316.469C481.04 317.172 481.294 317.857 482.192 318.233C482.552 318.384 482.962 318.459 483.37 318.459C483.781 318.459 484.191 318.384 484.551 318.233C485.449 317.857 485.703 317.172 485.383 316.469C485.193 316.052 485.043 315.689 485.043 315.689C484.759 315.039 484.41 314.33 484.41 313.613V313.406C484.41 312.687 484.988 312.097 485.736 312.03C487.776 311.845 489.778 311.372 491.673 310.627C492.347 310.363 493.121 310.605 493.485 311.208L493.641 311.468C494.016 312.089 494.083 312.87 494.178 313.567C494.178 313.567 494.238 313.955 494.292 314.406C494.383 315.168 494.96 315.639 495.934 315.536C496.324 315.495 496.718 315.363 497.074 315.168C497.428 314.971 497.744 314.71 497.977 314.407C498.558 313.652 498.42 312.939 497.775 312.482C497.394 312.211 497.073 311.969 497.073 311.969C496.488 311.542 495.815 311.095 495.44 310.474L495.335 310.299C494.958 309.676 495.151 308.888 495.766 308.472C497.406 307.357 498.894 305.999 500.165 304.415C500.609 303.861 501.407 303.701 502.039 304.049L502.314 304.2C502.963 304.559 503.429 305.203 503.876 305.763C503.876 305.763 504.129 306.069 504.412 306.434C504.89 307.051 505.636 307.183 506.426 306.627C506.741 306.405 507.015 306.103 507.22 305.764C507.425 305.423 507.562 305.046 507.605 304.674C507.714 303.741 507.221 303.189 506.423 303.102C505.952 303.05 505.548 302.994 505.548 302.994C504.818 302.904 504.002 302.839 503.352 302.48L503.162 302.374C502.51 302.015 502.264 301.241 502.579 300.587C503.454 298.769 504.017 296.878 504.284 294.973C504.38 294.281 504.987 293.76 505.716 293.76H506.026C506.775 293.76 507.516 294.094 508.195 294.365C508.195 294.365 508.575 294.51 509.011 294.691C509.746 294.996 510.462 294.753 510.855 293.894C511.013 293.55 511.091 293.158 511.091 292.766C511.091 292.374 511.013 291.982 510.855 291.638Z" stroke="white"/>
</g>
</g>
</svg>
