<svg width="1440" height="927" viewBox="0 0 1440 927" fill="none" xmlns="http://www.w3.org/2000/svg">
<rect width="1440" height="802" fill="#262C7C"/>
<g opacity="0.857073">
<g opacity="0.15">
<path fill-rule="evenodd" clip-rule="evenodd" d="M109.537 184.67C109.537 188.407 106.44 191.438 102.622 191.438C98.8038 191.438 95.7073 188.407 95.7073 184.67C95.7073 180.931 98.8038 177.901 102.622 177.901C106.44 177.901 109.537 180.931 109.537 184.67Z" stroke="white"/>
<path fill-rule="evenodd" clip-rule="evenodd" d="M128.305 212.227C128.305 214.63 126.315 216.578 123.86 216.578C121.406 216.578 119.415 214.63 119.415 212.227C119.415 209.824 121.406 207.876 123.86 207.876C126.315 207.876 128.305 209.824 128.305 212.227Z" stroke="white"/>
<path fill-rule="evenodd" clip-rule="evenodd" d="M100.646 202.558C100.646 204.961 98.6563 206.909 96.2012 206.909C93.7461 206.909 91.7561 204.961 91.7561 202.558C91.7561 200.155 93.7461 198.207 96.2012 198.207C98.6563 198.207 100.646 200.155 100.646 202.558Z" stroke="white"/>
<path fill-rule="evenodd" clip-rule="evenodd" d="M118.427 202.558C118.427 204.961 116.436 206.909 113.981 206.909C111.526 206.909 109.537 204.961 109.537 202.558C109.537 200.155 111.526 198.207 113.981 198.207C116.436 198.207 118.427 200.155 118.427 202.558Z" stroke="white"/>
<path fill-rule="evenodd" clip-rule="evenodd" d="M135.22 199.657C135.22 201.526 133.672 203.042 131.762 203.042C129.852 203.042 128.305 201.526 128.305 199.657C128.305 197.789 129.852 196.273 131.762 196.273C133.672 196.273 135.22 197.789 135.22 199.657Z" stroke="white"/>
<path fill-rule="evenodd" clip-rule="evenodd" d="M114.476 218.028C114.476 219.363 113.37 220.446 112.006 220.446C110.642 220.446 109.537 219.363 109.537 218.028C109.537 216.693 110.642 215.611 112.006 215.611C113.37 215.611 114.476 216.693 114.476 218.028Z" stroke="white"/>
<path fill-rule="evenodd" clip-rule="evenodd" d="M125.341 186.12C125.341 187.455 124.235 188.538 122.871 188.538C121.507 188.538 120.402 187.455 120.402 186.12C120.402 184.785 121.507 183.703 122.871 183.703C124.235 183.703 125.341 184.785 125.341 186.12Z" stroke="white"/>
<path fill-rule="evenodd" clip-rule="evenodd" d="M152.65 196.153C152.066 194.848 151.004 194.48 149.913 194.944C149.266 195.219 148.703 195.438 148.703 195.438C147.694 195.85 146.595 196.358 145.483 196.358H145.162C144.045 196.358 143.131 195.518 143.025 194.431C142.74 191.466 142.006 188.557 140.851 185.805C140.441 184.826 140.816 183.702 141.753 183.174L142.154 182.946C143.117 182.402 144.33 182.304 145.413 182.167C145.413 182.167 146.012 182.081 146.712 182.002C147.896 181.87 148.626 181.03 148.466 179.616C148.402 179.049 148.199 178.476 147.894 177.96C147.59 177.444 147.184 176.985 146.716 176.648C145.542 175.805 144.437 176.004 143.727 176.941C143.307 177.496 142.931 177.962 142.931 177.962C142.269 178.811 141.576 179.789 140.612 180.334L140.342 180.487C139.374 181.033 138.152 180.752 137.506 179.861C135.777 177.476 133.669 175.317 131.213 173.469C130.353 172.823 130.103 171.664 130.644 170.747L130.88 170.349C131.436 169.405 132.435 168.727 133.304 168.078C133.304 168.078 133.779 167.71 134.345 167.299C135.302 166.606 135.507 165.521 134.645 164.375C134.3 163.915 133.832 163.518 133.304 163.22C132.778 162.923 132.192 162.723 131.613 162.662C130.168 162.504 129.31 163.22 129.174 164.377C129.095 165.063 129.008 165.649 129.008 165.649C128.867 166.71 128.766 167.896 128.211 168.84L128.047 169.116C127.49 170.064 126.288 170.419 125.274 169.963C122.453 168.692 119.519 167.873 116.564 167.486C115.489 167.345 114.681 166.465 114.681 165.405V164.957C114.681 163.867 115.199 162.791 115.62 161.804C115.62 161.804 115.844 161.253 116.125 160.619C116.6 159.551 116.222 158.511 114.89 157.94C114.357 157.711 113.749 157.596 113.14 157.596C112.531 157.596 111.922 157.711 111.389 157.94C110.057 158.511 109.681 159.551 110.154 160.619C110.436 161.253 110.659 161.804 110.659 161.804C111.08 162.791 111.598 163.867 111.598 164.957V165.27C111.598 166.363 110.742 167.258 109.631 167.36C106.602 167.641 103.63 168.358 100.819 169.49C99.8197 169.891 98.6714 169.524 98.13 168.607L97.8983 168.214C97.3418 167.27 97.241 166.085 97.1013 165.024C97.1013 165.024 97.0132 164.438 96.9338 163.751C96.7991 162.594 95.9417 161.878 94.495 162.036C93.917 162.098 93.3316 162.297 92.804 162.595C92.2777 162.892 91.8093 163.289 91.4631 163.749C90.6018 164.896 90.8071 165.981 91.764 166.673C92.3306 167.085 92.8053 167.452 92.8053 167.452C93.6728 168.102 94.6725 168.78 95.229 169.723L95.3864 169.987C95.9442 170.935 95.6558 172.131 94.7455 172.764C92.3104 174.456 90.1032 176.52 88.2159 178.924C87.5574 179.765 86.3713 180.01 85.4345 179.48L85.0278 179.25C84.0634 178.705 83.3721 177.727 82.7086 176.877C82.7086 176.877 82.3321 176.412 81.9128 175.858C81.2052 174.921 80.0972 174.72 78.925 175.564C78.4554 175.902 78.0499 176.361 77.7465 176.876C77.4431 177.392 77.2391 177.965 77.1749 178.532C77.015 179.947 77.7452 180.786 78.9275 180.918C79.6288 180.997 80.2282 181.082 80.2282 181.082C81.3123 181.22 82.5235 181.318 83.4867 181.862L83.77 182.023C84.737 182.569 85.1009 183.744 84.6325 184.738C83.3356 187.498 82.4983 190.37 82.1042 193.263C81.9594 194.314 81.0617 195.105 79.9776 195.105H79.5193C78.4063 195.105 77.3071 194.598 76.2985 194.186C76.2985 194.186 75.7357 193.968 75.0886 193.693C73.9969 193.228 72.9355 193.597 72.3513 194.901C72.1171 195.423 72 196.019 72 196.615C72 197.21 72.1171 197.806 72.3513 198.328C72.9355 199.632 73.9969 200.001 75.0886 199.536C75.7357 199.261 76.2985 199.043 76.2985 199.043C77.3071 198.631 78.4063 198.124 79.5193 198.124H79.8404C80.9559 198.124 81.87 198.962 81.9745 200.049C82.2629 203.014 82.9957 205.923 84.1503 208.675C84.562 209.653 84.1855 210.777 83.2487 211.307L82.8483 211.534C81.8839 212.079 80.6726 212.176 79.5898 212.314C79.5898 212.314 78.9892 212.401 78.2879 212.478C77.1056 212.611 76.3753 213.449 76.5353 214.866C76.6007 215.431 76.8034 216.004 77.1069 216.52C77.4116 217.036 77.8158 217.494 78.2854 217.832C79.4576 218.676 80.5656 218.475 81.2745 217.539C81.6938 216.984 82.069 216.52 82.069 216.52C82.7325 215.669 83.425 214.692 84.3882 214.147L84.6602 213.994C85.6284 213.447 86.8485 213.728 87.4957 214.62C89.2244 217.004 91.3321 219.164 93.7899 221.011C94.6486 221.657 94.8979 222.816 94.3565 223.733L94.1223 224.133C93.5645 225.075 92.566 225.753 91.6985 226.402C91.6985 226.402 91.2226 226.77 90.656 227.18C89.6991 227.874 89.4951 228.959 90.3563 230.106C90.7013 230.565 91.1697 230.962 91.6973 231.26C92.2248 231.558 92.8103 231.757 93.3882 231.818C94.8349 231.976 95.6911 231.26 95.8258 230.103C95.9064 229.417 95.9945 228.831 95.9945 228.831C96.1343 227.77 96.2338 226.584 96.7915 225.641L96.9552 225.364C97.513 224.417 98.7129 224.061 99.7278 224.518C102.548 225.789 105.482 226.607 108.438 226.994C109.511 227.135 110.321 228.015 110.321 229.076V229.525C110.321 230.614 109.802 231.69 109.381 232.677C109.381 232.677 109.157 233.228 108.876 233.862C108.402 234.93 108.778 235.969 110.111 236.541C110.645 236.77 111.253 236.884 111.86 236.884C112.47 236.884 113.078 236.77 113.612 236.541C114.945 235.969 115.322 234.93 114.847 233.862C114.565 233.228 114.342 232.677 114.342 232.677C113.922 231.69 113.403 230.614 113.403 229.525V229.21C113.403 228.118 114.26 227.222 115.371 227.12C118.399 226.839 121.37 226.122 124.182 224.99C125.183 224.589 126.331 224.957 126.871 225.873L127.103 226.267C127.659 227.21 127.759 228.396 127.9 229.456C127.9 229.456 127.988 230.043 128.069 230.729C128.203 231.886 129.06 232.602 130.506 232.444C131.084 232.383 131.67 232.183 132.197 231.886C132.724 231.588 133.192 231.191 133.537 230.731C134.399 229.584 134.195 228.5 133.239 227.807C132.672 227.396 132.196 227.028 132.196 227.028C131.327 226.379 130.329 225.701 129.772 224.757L129.616 224.492C129.057 223.546 129.344 222.349 130.256 221.717C132.691 220.025 134.898 217.962 136.784 215.556C137.444 214.715 138.629 214.471 139.565 215L139.973 215.23C140.937 215.775 141.629 216.752 142.293 217.603C142.293 217.603 142.668 218.069 143.088 218.622C143.797 219.56 144.904 219.76 146.076 218.915C146.545 218.578 146.951 218.119 147.255 217.604C147.559 217.088 147.762 216.515 147.826 215.949C147.988 214.533 147.256 213.695 146.072 213.562C145.374 213.484 144.773 213.398 144.773 213.398C143.69 213.261 142.479 213.162 141.515 212.618L141.233 212.457C140.264 211.911 139.9 210.736 140.368 209.743C141.666 206.983 142.502 204.11 142.897 201.217C143.041 200.166 143.941 199.375 145.024 199.375H145.483C146.595 199.375 147.694 199.882 148.703 200.294C148.703 200.294 149.266 200.513 149.913 200.788C151.004 201.252 152.066 200.883 152.65 199.579C152.884 199.057 153 198.461 153 197.866C153 197.271 152.884 196.674 152.65 196.153Z" stroke="white"/>
</g>
<g opacity="0.15">
<path fill-rule="evenodd" clip-rule="evenodd" d="M972.131 337.913C970.568 359.789 951.187 376.29 928.851 374.761C906.515 373.232 889.668 354.251 891.231 332.376C892.794 310.493 912.175 293.999 934.511 295.528C956.847 297.057 973.694 316.03 972.131 337.913Z" stroke="white"/>
<path fill-rule="evenodd" clip-rule="evenodd" d="M1068.09 504.084C1067.04 518.76 1054.05 529.825 1039.06 528.799C1024.08 527.774 1012.78 515.046 1013.83 500.37C1014.88 485.693 1027.88 474.629 1042.86 475.655C1057.84 476.68 1069.14 489.408 1068.09 504.084Z" stroke="white"/>
<path fill-rule="evenodd" clip-rule="evenodd" d="M917.765 434.349C916.716 449.025 903.72 460.09 888.735 459.064C873.75 458.038 862.454 445.311 863.502 430.635C864.551 415.959 877.547 404.894 892.532 405.92C907.517 406.946 918.813 419.673 917.765 434.349Z" stroke="white"/>
<path fill-rule="evenodd" clip-rule="evenodd" d="M1018.64 441.126C1017.59 455.802 1004.59 466.866 989.609 465.84C974.626 464.815 963.332 452.088 964.38 437.411C965.428 422.735 978.423 411.671 993.406 412.696C1008.39 413.722 1019.69 426.45 1018.64 441.126Z" stroke="white"/>
<path fill-rule="evenodd" clip-rule="evenodd" d="M1112.61 433.869C1111.83 444.804 1102.15 453.058 1090.97 452.293C1079.8 451.528 1071.38 442.035 1072.16 431.1C1072.95 420.165 1082.63 411.911 1093.8 412.676C1104.98 413.441 1113.4 422.933 1112.61 433.869Z" stroke="white"/>
<path fill-rule="evenodd" clip-rule="evenodd" d="M985.047 531.228C984.532 538.433 978.151 543.867 970.796 543.364C963.44 542.86 957.894 536.61 958.409 529.404C958.924 522.199 965.304 516.771 972.659 517.275C980.015 517.778 985.562 524.022 985.047 531.228Z" stroke="white"/>
<path fill-rule="evenodd" clip-rule="evenodd" d="M1058.24 351.062C1057.72 358.268 1051.34 363.702 1043.99 363.198C1036.63 362.694 1031.09 356.444 1031.6 349.239C1032.12 342.033 1038.49 336.605 1045.85 337.109C1053.21 337.613 1058.75 343.857 1058.24 351.062Z" stroke="white"/>
<path fill-rule="evenodd" clip-rule="evenodd" d="M1214.38 417.799C1211.56 410.078 1205.62 407.553 1199.17 409.785C1195.35 411.108 1192.03 412.146 1192.03 412.146C1186.07 414.113 1179.56 416.596 1173.18 416.16L1171.34 416.034C1164.93 415.595 1160.03 410.418 1159.87 404.137C1159.45 387.004 1156.43 370.02 1150.93 353.77C1148.98 347.992 1151.59 341.687 1157.18 339.02L1159.58 337.869C1165.33 335.128 1172.33 335.038 1178.6 334.678C1178.6 334.678 1182.07 334.418 1186.12 334.24C1192.96 333.948 1197.49 329.417 1197.16 321.233C1197.02 317.953 1196.09 314.584 1194.56 311.507C1193.02 308.423 1190.88 305.633 1188.33 303.51C1181.95 298.211 1175.52 298.923 1171.07 304.02C1168.43 307.039 1166.08 309.565 1166.08 309.565C1161.94 314.18 1157.56 319.525 1151.8 322.273L1150.2 323.044C1144.42 325.798 1137.52 323.705 1134.18 318.337C1125.24 303.969 1114.03 290.747 1100.7 279.178C1096.03 275.133 1095.08 268.378 1098.55 263.327L1100.07 261.135C1103.64 255.934 1109.66 252.436 1114.91 249.056C1114.91 249.056 1117.78 247.127 1121.2 244.994C1126.97 241.386 1128.6 235.242 1124.12 228.324C1122.33 225.55 1119.8 223.088 1116.9 221.169C1114 219.257 1110.72 217.881 1107.43 217.3C1099.2 215.827 1093.99 219.6 1092.73 226.19C1092 230.092 1091.26 233.425 1091.26 233.425C1090.01 239.461 1088.95 246.227 1085.38 251.428L1084.32 252.948C1080.74 258.169 1073.7 259.735 1068.06 256.719C1052.41 248.318 1035.91 242.461 1019.12 239.08C1013.01 237.851 1008.73 232.482 1009.16 226.398L1009.35 223.823C1009.8 217.57 1013.21 211.597 1016.03 206.096C1016.03 206.096 1017.54 203.022 1019.41 199.496C1022.57 193.549 1020.83 187.43 1013.42 183.631C1010.46 182.106 1007.02 181.209 1003.53 180.97C1000.04 180.731 996.494 181.15 993.344 182.257C985.468 185.009 982.882 190.832 985.16 197.151C986.518 200.898 987.571 204.148 987.571 204.148C989.578 209.98 992.113 216.359 991.666 222.613L991.538 224.41C991.09 230.685 985.811 235.485 979.391 235.635C961.904 236.059 944.556 239.009 927.97 244.4C922.07 246.314 915.633 243.755 912.903 238.279L911.735 235.931C908.93 230.293 908.837 223.455 908.471 217.309C908.471 217.309 908.206 213.907 908.032 209.936C907.734 203.24 903.108 198.793 894.744 199.131C891.403 199.265 887.963 200.174 884.814 201.678C881.673 203.177 878.823 205.271 876.648 207.773C871.237 214.022 871.97 220.328 877.175 224.679C880.257 227.264 882.83 229.559 882.83 229.559C887.54 233.628 892.997 237.911 895.803 243.542L896.598 245.125C899.409 250.784 897.264 257.533 891.782 260.811C877.119 269.568 863.611 280.544 851.797 293.605C847.675 298.171 840.77 299.113 835.613 295.703L833.374 294.221C828.065 290.715 824.5 284.834 821.042 279.692C821.042 279.692 819.073 276.877 816.895 273.529C813.22 267.875 806.946 266.286 799.875 270.672C797.042 272.426 794.528 274.899 792.576 277.736C790.624 280.581 789.218 283.791 788.618 287.02C787.12 295.079 790.965 300.183 797.694 301.404C801.685 302.132 805.088 302.856 805.088 302.856C811.251 304.074 818.16 305.108 823.462 308.613L825.021 309.644C830.345 313.158 831.95 320.05 828.856 325.568C820.284 340.905 814.303 357.06 810.856 373.508C809.594 379.486 804.12 383.675 797.901 383.25L795.271 383.07C788.886 382.633 782.788 379.286 777.171 376.527C777.171 376.527 774.032 375.054 770.432 373.223C764.36 370.127 758.12 371.825 754.234 379.081C752.676 381.988 751.76 385.359 751.515 388.783C751.271 392.2 751.699 395.663 752.828 398.754C755.645 406.468 761.583 409 768.036 406.762C771.862 405.439 775.18 404.407 775.18 404.407C781.134 402.441 787.648 399.958 794.034 400.395L795.876 400.521C802.275 400.959 807.176 406.128 807.33 412.409C807.768 429.543 810.779 446.526 816.274 462.777C818.235 468.556 815.614 474.86 810.023 477.534L807.633 478.678C801.877 481.426 794.888 481.51 788.619 481.877C788.619 481.877 785.139 482.136 781.083 482.306C774.246 482.606 769.713 487.13 770.05 495.321C770.193 498.594 771.121 501.963 772.651 505.039C774.187 508.123 776.318 510.914 778.874 513.036C785.252 518.343 791.691 517.625 796.142 512.526C798.774 509.508 801.118 506.988 801.118 506.988C805.273 502.367 809.646 497.029 815.395 494.28L817.018 493.51C822.797 490.749 829.681 492.841 833.028 498.217C841.968 512.578 853.174 525.807 866.517 537.369C871.178 541.414 872.133 548.169 868.651 553.219L867.143 555.419C863.557 560.612 857.551 564.111 852.308 567.492C852.308 567.492 849.427 569.42 846.008 571.553C840.234 575.16 838.619 581.306 843.089 588.23C844.881 590.997 847.405 593.459 850.309 595.378C853.213 597.297 856.491 598.666 859.781 599.247C868.016 600.721 873.221 596.947 874.468 590.357C875.212 586.455 875.958 583.122 875.958 583.122C877.195 577.086 878.252 570.319 881.838 565.127L882.891 563.599C886.479 558.385 893.509 556.812 899.143 559.835C914.802 568.236 931.296 574.085 948.098 577.468C954.194 578.695 958.478 584.064 958.043 590.155L957.859 592.73C957.412 598.984 953.995 604.956 951.178 610.458C951.178 610.458 949.666 613.532 947.795 617.058C944.634 623.005 946.368 629.117 953.783 632.923C956.751 634.448 960.194 635.338 963.675 635.576C967.171 635.815 970.707 635.403 973.863 634.297C981.747 631.538 984.333 625.722 982.048 619.403C980.69 615.656 979.637 612.406 979.637 612.406C977.629 606.574 975.094 600.194 975.541 593.941L975.67 592.137C976.118 585.869 981.404 581.062 987.817 580.911C1005.3 580.488 1022.64 577.537 1039.24 572.147C1045.15 570.234 1051.58 572.8 1054.31 578.268L1055.47 580.623C1058.28 586.253 1058.36 593.098 1058.74 599.237C1058.74 599.237 1059 602.646 1059.18 606.611C1059.48 613.307 1064.1 617.754 1072.46 617.416C1075.8 617.289 1079.25 616.373 1082.39 614.875C1085.54 613.37 1088.38 611.276 1090.55 608.773C1095.97 602.525 1095.24 596.227 1090.04 591.868C1086.96 589.29 1084.38 586.988 1084.38 586.988C1079.66 582.925 1074.21 578.642 1071.4 573.005L1070.62 571.423C1067.8 565.77 1069.94 559.014 1075.43 555.742C1090.09 546.985 1103.6 536.01 1115.4 522.941C1119.53 518.375 1126.43 517.44 1131.59 520.843L1133.83 522.326C1139.14 525.831 1142.71 531.713 1146.17 536.855C1146.17 536.855 1148.13 539.676 1150.31 543.018C1153.99 548.68 1160.26 550.26 1167.33 545.875C1170.16 544.12 1172.68 541.648 1174.63 538.81C1176.59 535.966 1177.99 532.756 1178.59 529.534C1180.1 521.469 1176.24 516.371 1169.51 515.142C1165.53 514.422 1162.12 513.691 1162.12 513.691C1155.96 512.481 1149.06 511.439 1143.75 507.933L1142.19 506.903C1136.86 503.389 1135.26 496.497 1138.34 490.986C1146.92 475.649 1152.9 459.487 1156.35 443.038C1157.61 437.06 1163.1 432.872 1169.31 433.297L1171.94 433.478C1178.32 433.914 1184.42 437.26 1190.04 440.019C1190.04 440.019 1193.18 441.5 1196.78 443.331C1202.85 446.42 1209.09 444.721 1212.97 437.466C1214.53 434.559 1215.44 431.187 1215.68 427.77C1215.93 424.353 1215.51 420.884 1214.38 417.799Z" stroke="white"/>
</g>
<g opacity="0.15">
<path fill-rule="evenodd" clip-rule="evenodd" d="M79.0675 730.535C79.0675 738.009 72.875 744.07 65.2392 744.07C57.6035 744.07 51.411 738.009 51.411 730.535C51.411 723.058 57.6035 716.999 65.2392 716.999C72.875 716.999 79.0675 723.058 79.0675 730.535Z" stroke="white"/>
<path fill-rule="evenodd" clip-rule="evenodd" d="M115.613 784.678C115.613 789.484 111.634 793.38 106.725 793.38C101.816 793.38 97.8344 789.484 97.8344 784.678C97.8344 779.872 101.816 775.976 106.725 775.976C111.634 775.976 115.613 779.872 115.613 784.678Z" stroke="white"/>
<path fill-rule="evenodd" clip-rule="evenodd" d="M61.2884 765.341C61.2884 770.147 57.3086 774.043 52.3988 774.043C47.489 774.043 43.5092 770.147 43.5092 765.341C43.5092 760.535 47.489 756.639 52.3988 756.639C57.3086 756.639 61.2884 760.535 61.2884 765.341Z" stroke="white"/>
<path fill-rule="evenodd" clip-rule="evenodd" d="M95.8589 765.341C95.8589 770.147 91.8773 774.043 86.9681 774.043C82.059 774.043 78.0798 770.147 78.0798 765.341C78.0798 760.535 82.059 756.639 86.9681 756.639C91.8773 756.639 95.8589 760.535 95.8589 765.341Z" stroke="white"/>
<path fill-rule="evenodd" clip-rule="evenodd" d="M129.442 759.54C129.442 763.276 126.347 766.308 122.528 766.308C118.708 766.308 115.614 763.276 115.614 759.54C115.614 755.804 118.708 752.772 122.528 752.772C126.347 752.772 129.442 755.804 129.442 759.54Z" stroke="white"/>
<path fill-rule="evenodd" clip-rule="evenodd" d="M88.9448 796.279C88.9448 798.949 86.7335 801.115 84.0062 801.115C81.2788 801.115 79.0675 798.949 79.0675 796.279C79.0675 793.609 81.2788 791.446 84.0062 791.446C86.7335 791.446 88.9448 793.609 88.9448 796.279Z" stroke="white"/>
<path fill-rule="evenodd" clip-rule="evenodd" d="M109.687 733.434C109.687 736.104 107.475 738.269 104.747 738.269C102.019 738.269 99.8098 736.104 99.8098 733.434C99.8098 730.764 102.019 728.601 104.747 728.601C107.475 728.601 109.687 730.764 109.687 733.434Z" stroke="white"/>
<path fill-rule="evenodd" clip-rule="evenodd" d="M164.304 753.029C163.143 750.434 161.033 749.704 158.864 750.625C157.577 751.172 156.458 751.608 156.458 751.608C154.454 752.426 152.269 753.435 150.059 753.435H149.421C147.201 753.435 145.384 751.767 145.174 749.606C144.606 743.712 143.147 737.931 140.852 732.461C140.036 730.516 140.782 728.281 142.644 727.23L143.442 726.777C145.357 725.697 147.767 725.501 149.919 725.229C149.919 725.229 151.11 725.057 152.502 724.901C154.854 724.639 156.306 722.97 155.988 720.158C155.86 719.031 155.457 717.892 154.852 716.868C154.246 715.842 153.44 714.93 152.509 714.259C150.177 712.583 147.98 712.98 146.568 714.842C145.735 715.944 144.986 716.87 144.986 716.87C143.67 718.558 142.294 720.503 140.376 721.586L139.841 721.89C137.916 722.975 135.486 722.417 134.202 720.646C130.766 715.905 126.577 711.613 121.694 707.941C119.985 706.658 119.489 704.352 120.563 702.53L121.034 701.738C122.137 699.862 124.124 698.515 125.851 697.226C125.851 697.226 126.795 696.494 127.921 695.678C129.823 694.299 130.231 692.143 128.516 689.865C127.831 688.951 126.9 688.162 125.851 687.569C124.805 686.979 123.641 686.582 122.49 686.46C119.617 686.146 117.913 687.569 117.642 689.87C117.485 691.232 117.312 692.398 117.312 692.398C117.032 694.507 116.832 696.864 115.728 698.74L115.403 699.289C114.294 701.173 111.906 701.878 109.889 700.972C104.283 698.446 98.4522 696.817 92.5785 696.048C90.4413 695.768 88.8346 694.019 88.8346 691.913V691.021C88.8346 688.855 89.8657 686.717 90.7015 684.755C90.7015 684.755 91.147 683.659 91.7051 682.4C92.6486 680.276 91.8978 678.209 89.25 677.075C88.1914 676.619 86.9826 676.391 85.7713 676.391C84.5626 676.391 83.3513 676.619 82.2927 677.075C79.6449 678.209 78.8966 680.276 79.8376 682.4C80.3982 683.659 80.8411 684.755 80.8411 684.755C81.677 686.717 82.7081 688.855 82.7081 691.021V691.643C82.7081 693.816 81.0063 695.595 78.7965 695.798C72.7776 696.356 66.8689 697.782 61.283 700.031C59.2959 700.83 57.0135 700.1 55.9373 698.277L55.4769 697.496C54.3707 695.619 54.1705 693.265 53.8927 691.156C53.8927 691.156 53.7175 689.99 53.5598 688.625C53.292 686.325 51.5877 684.901 48.7122 685.215C47.5635 685.34 46.3998 685.734 45.3512 686.327C44.3051 686.918 43.3741 687.706 42.6858 688.62C40.974 690.901 41.382 693.057 43.284 694.433C44.4102 695.252 45.3537 695.982 45.3537 695.982C47.078 697.273 49.0651 698.62 50.1713 700.494L50.4841 701.021C51.5928 702.905 51.0196 705.281 49.2102 706.54C44.3701 709.903 39.983 714.004 36.2315 718.784C34.9227 720.454 32.5652 720.942 30.7032 719.889L29.8948 719.43C27.9778 718.348 26.6039 716.405 25.285 714.715C25.285 714.715 24.5367 713.791 23.7033 712.689C22.2968 710.827 20.0945 710.428 17.7645 712.106C16.831 712.777 16.0252 713.688 15.4221 714.712C14.8189 715.739 14.4135 716.878 14.2859 718.005C13.968 720.817 15.4196 722.485 17.7695 722.747C19.1635 722.904 20.3548 723.073 20.3548 723.073C22.5095 723.348 24.9171 723.541 26.8316 724.624L27.3947 724.942C29.3167 726.028 30.04 728.365 29.109 730.339C26.5313 735.827 24.867 741.534 24.0837 747.284C23.7959 749.374 22.0115 750.946 19.8567 750.946H18.9458C16.7334 750.946 14.5486 749.937 12.544 749.119C12.544 749.119 11.4253 748.685 10.139 748.139C7.96919 747.215 5.85946 747.948 4.69824 750.54C4.23275 751.578 4 752.762 4 753.947C4 755.13 4.23275 756.314 4.69824 757.352C5.85946 759.944 7.96919 760.677 10.139 759.753C11.4253 759.207 12.544 758.773 12.544 758.773C14.5486 757.955 16.7334 756.946 18.9458 756.946H19.584C21.8013 756.946 23.6182 758.611 23.8259 760.772C24.399 766.666 25.8556 772.448 28.1505 777.918C28.9689 779.863 28.2206 782.097 26.3586 783.15L25.5628 783.601C23.6457 784.684 21.2382 784.878 19.0859 785.152C19.0859 785.152 17.8922 785.323 16.4982 785.478C14.1482 785.742 12.6967 787.408 13.0145 790.223C13.1447 791.347 13.5476 792.486 14.1507 793.51C14.7564 794.537 15.5597 795.448 16.4932 796.119C18.8232 797.797 21.0255 797.398 22.4345 795.536C23.2678 794.434 24.0136 793.51 24.0136 793.51C25.3325 791.82 26.709 789.877 28.6235 788.795L29.1641 788.491C31.0886 787.403 33.5137 787.962 34.8 789.735C38.2362 794.473 42.4256 798.767 47.3107 802.437C49.0175 803.721 49.5131 806.026 48.4369 807.849L47.9714 808.642C46.8628 810.516 44.8782 811.864 43.1538 813.152C43.1538 813.152 42.2078 813.885 41.0817 814.701C39.1796 816.08 38.7742 818.236 40.486 820.516C41.1718 821.428 42.1027 822.216 43.1513 822.809C44.1999 823.402 45.3637 823.796 46.5124 823.919C49.3879 824.232 51.0897 822.809 51.3575 820.509C51.5177 819.147 51.6929 817.981 51.6929 817.981C51.9707 815.872 52.1684 813.515 53.277 811.641L53.6024 811.09C54.711 809.208 57.0961 808.5 59.1132 809.409C64.7191 811.935 70.5503 813.561 76.4265 814.331C78.5587 814.61 80.1679 816.359 80.1679 818.468V819.36C80.1679 821.526 79.1368 823.664 78.301 825.626C78.301 825.626 77.8555 826.721 77.2974 827.981C76.3539 830.104 77.1022 832.17 79.7525 833.306C80.8136 833.762 82.0224 833.987 83.2287 833.987C84.4399 833.987 85.6487 833.762 86.7098 833.306C89.3601 832.17 90.1084 830.104 89.1649 827.981C88.6043 826.721 88.1614 825.626 88.1614 825.626C87.3255 823.664 86.2944 821.526 86.2944 819.36V818.735C86.2944 816.565 87.9987 814.784 90.206 814.581C96.2249 814.022 102.131 812.596 107.72 810.347C109.709 809.549 111.992 810.281 113.065 812.101L113.526 812.885C114.632 814.759 114.83 817.116 115.11 819.223C115.11 819.223 115.285 820.391 115.445 821.753C115.713 824.054 117.415 825.477 120.29 825.163C121.439 825.041 122.603 824.644 123.651 824.054C124.697 823.461 125.628 822.672 126.314 821.758C128.028 819.478 127.623 817.324 125.721 815.945C124.595 815.129 123.649 814.397 123.649 814.397C121.922 813.108 119.937 811.761 118.831 809.884L118.521 809.358C117.41 807.476 117.98 805.098 119.792 803.841C124.632 800.477 129.02 796.377 132.768 791.595C134.08 789.924 136.435 789.439 138.297 790.49L139.108 790.948C141.022 792.031 142.399 793.973 143.718 795.664C143.718 795.664 144.463 796.59 145.299 797.69C146.708 799.554 148.908 799.951 151.238 798.273C152.169 797.601 152.977 796.69 153.58 795.666C154.186 794.64 154.589 793.501 154.717 792.376C155.037 789.561 153.583 787.896 151.23 787.631C149.841 787.477 148.648 787.305 148.648 787.305C146.495 787.033 144.088 786.837 142.171 785.755L141.61 785.436C139.686 784.351 138.963 782.014 139.891 780.042C142.471 774.554 144.133 768.844 144.919 763.094C145.204 761.005 146.993 759.432 149.146 759.432H150.059C152.269 759.432 154.454 760.441 156.458 761.26C156.458 761.26 157.577 761.696 158.864 762.242C161.033 763.163 163.143 762.431 164.304 759.839C164.77 758.8 165 757.617 165 756.434C165 755.25 164.77 754.065 164.304 753.029Z" stroke="white"/>
</g>
<g opacity="0.15">
<path fill-rule="evenodd" clip-rule="evenodd" d="M788.603 741.941C788.603 755.314 777.524 766.159 763.862 766.159C750.2 766.159 739.121 755.314 739.121 741.941C739.121 728.563 750.2 717.723 763.862 717.723C777.524 717.723 788.603 728.563 788.603 741.941Z" stroke="white"/>
<path fill-rule="evenodd" clip-rule="evenodd" d="M853.921 837.845C853.921 846.406 846.833 853.345 838.088 853.345C829.344 853.345 822.252 846.406 822.252 837.845C822.252 829.285 829.344 822.346 838.088 822.346C846.833 822.346 853.921 829.285 853.921 837.845Z" stroke="white"/>
<path fill-rule="evenodd" clip-rule="evenodd" d="M756.934 803.94C756.934 812.5 749.846 819.439 741.1 819.439C732.354 819.439 725.266 812.5 725.266 803.94C725.266 795.379 732.354 788.44 741.1 788.44C749.846 788.44 756.934 795.379 756.934 803.94Z" stroke="white"/>
<path fill-rule="evenodd" clip-rule="evenodd" d="M818.293 803.94C818.293 812.5 811.201 819.439 802.456 819.439C793.712 819.439 786.624 812.5 786.624 803.94C786.624 795.379 793.712 788.44 802.456 788.44C811.201 788.44 818.293 795.379 818.293 803.94Z" stroke="white"/>
<path fill-rule="evenodd" clip-rule="evenodd" d="M878.662 793.768C878.662 800.453 873.125 805.877 866.291 805.877C859.458 805.877 853.921 800.453 853.921 793.768C853.921 787.083 859.458 781.659 866.291 781.659C873.125 781.659 878.662 787.083 878.662 793.768Z" stroke="white"/>
<path fill-rule="evenodd" clip-rule="evenodd" d="M806.417 859.155C806.417 863.971 802.429 867.876 797.51 867.876C792.592 867.876 788.603 863.971 788.603 859.155C788.603 854.339 792.592 850.439 797.51 850.439C802.429 850.439 806.417 854.339 806.417 859.155Z" stroke="white"/>
<path fill-rule="evenodd" clip-rule="evenodd" d="M843.034 746.782C843.034 751.598 839.045 755.503 834.125 755.503C829.205 755.503 825.221 751.598 825.221 746.782C825.221 741.966 829.205 738.066 834.125 738.066C839.045 738.066 843.034 741.966 843.034 746.782Z" stroke="white"/>
<path fill-rule="evenodd" clip-rule="evenodd" d="M940.76 781.682C938.69 777.058 934.929 775.756 931.061 777.398C928.768 778.372 926.774 779.149 926.774 779.149C923.2 780.608 919.306 782.407 915.366 782.407H914.229C910.272 782.407 907.033 779.433 906.658 775.582C905.645 765.075 903.045 754.769 898.954 745.018C897.499 741.55 898.829 737.568 902.148 735.694L903.571 734.886C906.984 732.961 911.28 732.611 915.117 732.126C915.117 732.126 917.24 731.821 919.721 731.541C923.914 731.074 926.502 728.1 925.935 723.087C925.708 721.078 924.989 719.048 923.91 717.222C922.83 715.392 921.394 713.768 919.734 712.571C915.576 709.584 911.659 710.292 909.143 713.611C907.657 715.576 906.324 717.227 906.324 717.227C903.977 720.235 901.523 723.703 898.106 725.633L897.151 726.174C893.721 728.109 889.389 727.113 887.1 723.956C880.975 715.506 873.507 707.855 864.803 701.309C861.756 699.021 860.872 694.912 862.786 691.663L863.625 690.252C865.592 686.907 869.135 684.505 872.213 682.208C872.213 682.208 873.895 680.903 875.902 679.448C879.293 676.99 880.02 673.147 876.964 669.086C875.742 667.457 874.082 666.051 872.213 664.994C870.348 663.941 868.274 663.234 866.222 663.016C861.1 662.457 858.062 664.994 857.58 669.094C857.299 671.522 856.991 673.601 856.991 673.601C856.492 677.361 856.135 681.562 854.167 684.907L853.587 685.885C851.611 689.243 847.355 690.501 843.759 688.885C833.766 684.383 823.371 681.479 812.901 680.108C809.091 679.61 806.227 676.492 806.227 672.736V671.147C806.227 667.286 808.065 663.474 809.555 659.976C809.555 659.976 810.349 658.024 811.344 655.78C813.026 651.994 811.687 648.308 806.967 646.286C805.08 645.474 802.926 645.068 800.766 645.068C798.612 645.068 796.452 645.474 794.565 646.286C789.845 648.308 788.511 651.994 790.189 655.78C791.188 658.024 791.978 659.976 791.978 659.976C793.468 663.474 795.306 667.286 795.306 671.147V672.256C795.306 676.129 792.272 679.3 788.333 679.662C777.604 680.658 767.071 683.2 757.113 687.208C753.571 688.632 749.502 687.331 747.584 684.082L746.763 682.689C744.791 679.344 744.434 675.147 743.939 671.387C743.939 671.387 743.627 669.308 743.346 666.876C742.868 662.775 739.83 660.238 734.704 660.797C732.657 661.02 730.582 661.723 728.713 662.78C726.848 663.832 725.189 665.238 723.962 666.867C720.91 670.933 721.637 674.776 725.028 677.23C727.036 678.689 728.717 679.99 728.717 679.99C731.791 682.291 735.333 684.693 737.305 688.034L737.863 688.973C739.839 692.331 738.818 696.567 735.592 698.811C726.964 704.807 719.144 712.117 712.456 720.637C710.123 723.615 705.921 724.484 702.601 722.607L701.16 721.79C697.743 719.86 695.294 716.397 692.943 713.384C692.943 713.384 691.609 711.737 690.123 709.772C687.616 706.453 683.69 705.742 679.537 708.733C677.873 709.929 676.436 711.554 675.361 713.379C674.286 715.209 673.563 717.24 673.336 719.248C672.769 724.262 675.357 727.235 679.546 727.703C682.031 727.982 684.154 728.284 684.154 728.284C687.995 728.773 692.287 729.118 695.7 731.048L696.704 731.616C700.13 733.55 701.419 737.716 699.76 741.236C695.164 751.018 692.198 761.193 690.801 771.442C690.288 775.167 687.107 777.97 683.266 777.97H681.642C677.699 777.97 673.804 776.171 670.231 774.713C670.231 774.713 668.236 773.94 665.943 772.966C662.076 771.319 658.315 772.625 656.245 777.245C655.415 779.097 655 781.206 655 783.32C655 785.429 655.415 787.538 656.245 789.39C658.315 794.01 662.076 795.316 665.943 793.669C668.236 792.696 670.231 791.923 670.231 791.923C673.804 790.464 677.699 788.665 681.642 788.665H682.78C686.733 788.665 689.972 791.634 690.342 795.486C691.364 805.993 693.96 816.299 698.051 826.05C699.51 829.517 698.176 833.5 694.857 835.378L693.438 836.181C690.021 838.111 685.729 838.456 681.892 838.946C681.892 838.946 679.764 839.251 677.279 839.526C673.09 839.998 670.503 842.967 671.069 847.985C671.301 849.989 672.02 852.02 673.095 853.845C674.174 855.675 675.606 857.3 677.27 858.496C681.424 861.488 685.35 860.776 687.861 857.457C689.347 855.492 690.676 853.845 690.676 853.845C693.028 850.832 695.481 847.369 698.894 845.439L699.858 844.898C703.288 842.959 707.611 843.954 709.904 847.116C716.03 855.562 723.498 863.217 732.206 869.758C735.249 872.047 736.132 876.156 734.214 879.405L733.384 880.82C731.408 884.161 727.87 886.562 724.796 888.859C724.796 888.859 723.11 890.165 721.102 891.619C717.712 894.078 716.989 897.921 720.04 901.986C721.263 903.611 722.922 905.017 724.792 906.074C726.661 907.131 728.735 907.834 730.783 908.052C735.909 908.611 738.943 906.074 739.42 901.973C739.705 899.545 740.018 897.467 740.018 897.467C740.513 893.707 740.865 889.506 742.842 886.165L743.422 885.182C745.398 881.829 749.65 880.567 753.245 882.187C763.238 886.689 773.633 889.589 784.108 890.96C787.909 891.458 790.778 894.576 790.778 898.336V899.925C790.778 903.785 788.94 907.598 787.45 911.096C787.45 911.096 786.655 913.048 785.661 915.292C783.979 919.078 785.313 922.76 790.037 924.786C791.929 925.598 794.083 926 796.234 926C798.393 926 800.548 925.598 802.439 924.786C807.164 922.76 808.498 919.078 806.816 915.292C805.816 913.048 805.027 911.096 805.027 911.096C803.537 907.598 801.699 903.785 801.699 899.925V898.812C801.699 894.942 804.737 891.768 808.672 891.405C819.401 890.41 829.929 887.868 839.891 883.859C843.438 882.436 847.507 883.741 849.421 886.986L850.241 888.383C852.213 891.724 852.566 895.925 853.065 899.681C853.065 899.681 853.378 901.764 853.663 904.192C854.14 908.292 857.174 910.829 862.3 910.27C864.348 910.052 866.422 909.345 868.292 908.292C870.156 907.235 871.816 905.829 873.038 904.2C876.094 900.135 875.371 896.296 871.981 893.838C869.973 892.383 868.287 891.078 868.287 891.078C865.209 888.781 861.671 886.379 859.699 883.034L859.146 882.095C857.165 878.741 858.182 874.501 861.412 872.261C870.04 866.265 877.861 858.955 884.544 850.431C886.881 847.452 891.079 846.588 894.399 848.461L895.844 849.278C899.257 851.208 901.711 854.671 904.062 857.684C904.062 857.684 905.391 859.335 906.881 861.295C909.393 864.619 913.314 865.326 917.468 862.335C919.127 861.138 920.568 859.514 921.643 857.688C922.723 855.859 923.441 853.828 923.669 851.824C924.24 846.806 921.648 843.836 917.454 843.365C914.978 843.09 912.85 842.784 912.85 842.784C909.014 842.299 904.722 841.95 901.305 840.02L900.305 839.452C896.875 837.518 895.585 833.352 897.24 829.836C901.84 820.054 904.802 809.875 906.203 799.626C906.712 795.901 909.901 793.097 913.738 793.097H915.366C919.306 793.097 923.2 794.896 926.774 796.355C926.774 796.355 928.768 797.132 931.061 798.106C934.929 799.748 938.69 798.442 940.76 793.822C941.59 791.971 942 789.861 942 787.752C942 785.643 941.59 783.529 940.76 781.682Z" stroke="white"/>
</g>
<g opacity="0.15">
<path fill-rule="evenodd" clip-rule="evenodd" d="M788.603 741.941C788.603 755.314 777.524 766.159 763.862 766.159C750.2 766.159 739.121 755.314 739.121 741.941C739.121 728.563 750.2 717.723 763.862 717.723C777.524 717.723 788.603 728.563 788.603 741.941Z" stroke="white"/>
<path fill-rule="evenodd" clip-rule="evenodd" d="M853.921 837.845C853.921 846.406 846.833 853.345 838.088 853.345C829.344 853.345 822.252 846.406 822.252 837.845C822.252 829.285 829.344 822.346 838.088 822.346C846.833 822.346 853.921 829.285 853.921 837.845Z" stroke="white"/>
<path fill-rule="evenodd" clip-rule="evenodd" d="M756.934 803.94C756.934 812.5 749.846 819.439 741.1 819.439C732.354 819.439 725.266 812.5 725.266 803.94C725.266 795.379 732.354 788.44 741.1 788.44C749.846 788.44 756.934 795.379 756.934 803.94Z" stroke="white"/>
<path fill-rule="evenodd" clip-rule="evenodd" d="M818.293 803.94C818.293 812.5 811.201 819.439 802.456 819.439C793.712 819.439 786.624 812.5 786.624 803.94C786.624 795.379 793.712 788.44 802.456 788.44C811.201 788.44 818.293 795.379 818.293 803.94Z" stroke="white"/>
<path fill-rule="evenodd" clip-rule="evenodd" d="M878.662 793.768C878.662 800.453 873.125 805.877 866.291 805.877C859.458 805.877 853.921 800.453 853.921 793.768C853.921 787.083 859.458 781.659 866.291 781.659C873.125 781.659 878.662 787.083 878.662 793.768Z" stroke="white"/>
<path fill-rule="evenodd" clip-rule="evenodd" d="M806.417 859.155C806.417 863.971 802.429 867.876 797.51 867.876C792.592 867.876 788.603 863.971 788.603 859.155C788.603 854.339 792.592 850.439 797.51 850.439C802.429 850.439 806.417 854.339 806.417 859.155Z" stroke="white"/>
<path fill-rule="evenodd" clip-rule="evenodd" d="M843.034 746.782C843.034 751.598 839.045 755.503 834.125 755.503C829.205 755.503 825.221 751.598 825.221 746.782C825.221 741.966 829.205 738.066 834.125 738.066C839.045 738.066 843.034 741.966 843.034 746.782Z" stroke="white"/>
<path fill-rule="evenodd" clip-rule="evenodd" d="M940.76 781.682C938.69 777.058 934.929 775.756 931.061 777.398C928.768 778.372 926.774 779.149 926.774 779.149C923.2 780.608 919.306 782.407 915.366 782.407H914.229C910.272 782.407 907.033 779.433 906.658 775.582C905.645 765.075 903.045 754.769 898.954 745.018C897.499 741.55 898.829 737.568 902.148 735.694L903.571 734.886C906.984 732.961 911.28 732.611 915.117 732.126C915.117 732.126 917.24 731.821 919.721 731.541C923.914 731.074 926.502 728.1 925.935 723.087C925.708 721.078 924.989 719.048 923.91 717.222C922.83 715.392 921.394 713.768 919.734 712.571C915.576 709.584 911.659 710.292 909.143 713.611C907.657 715.576 906.324 717.227 906.324 717.227C903.977 720.235 901.523 723.703 898.106 725.633L897.151 726.174C893.721 728.109 889.389 727.113 887.1 723.956C880.975 715.506 873.507 707.855 864.803 701.309C861.756 699.021 860.872 694.912 862.786 691.663L863.625 690.252C865.592 686.907 869.135 684.505 872.213 682.208C872.213 682.208 873.895 680.903 875.902 679.448C879.293 676.99 880.02 673.147 876.964 669.086C875.742 667.457 874.082 666.051 872.213 664.994C870.348 663.941 868.274 663.234 866.222 663.016C861.1 662.457 858.062 664.994 857.58 669.094C857.299 671.522 856.991 673.601 856.991 673.601C856.492 677.361 856.135 681.562 854.167 684.907L853.587 685.885C851.611 689.243 847.355 690.501 843.759 688.885C833.766 684.383 823.371 681.479 812.901 680.108C809.091 679.61 806.227 676.492 806.227 672.736V671.147C806.227 667.286 808.065 663.474 809.555 659.976C809.555 659.976 810.349 658.024 811.344 655.78C813.026 651.994 811.687 648.308 806.967 646.286C805.08 645.474 802.926 645.068 800.766 645.068C798.612 645.068 796.452 645.474 794.565 646.286C789.845 648.308 788.511 651.994 790.189 655.78C791.188 658.024 791.978 659.976 791.978 659.976C793.468 663.474 795.306 667.286 795.306 671.147V672.256C795.306 676.129 792.272 679.3 788.333 679.662C777.604 680.658 767.071 683.2 757.113 687.208C753.571 688.632 749.502 687.331 747.584 684.082L746.763 682.689C744.791 679.344 744.434 675.147 743.939 671.387C743.939 671.387 743.627 669.308 743.346 666.876C742.868 662.775 739.83 660.238 734.704 660.797C732.657 661.02 730.582 661.723 728.713 662.78C726.848 663.832 725.189 665.238 723.962 666.867C720.91 670.933 721.637 674.776 725.028 677.23C727.036 678.689 728.717 679.99 728.717 679.99C731.791 682.291 735.333 684.693 737.305 688.034L737.863 688.973C739.839 692.331 738.818 696.567 735.592 698.811C726.964 704.807 719.144 712.117 712.456 720.637C710.123 723.615 705.921 724.484 702.601 722.607L701.16 721.79C697.743 719.86 695.294 716.397 692.943 713.384C692.943 713.384 691.609 711.737 690.123 709.772C687.616 706.453 683.69 705.742 679.537 708.733C677.873 709.929 676.436 711.554 675.361 713.379C674.286 715.209 673.563 717.24 673.336 719.248C672.769 724.262 675.357 727.235 679.546 727.703C682.031 727.982 684.154 728.284 684.154 728.284C687.995 728.773 692.287 729.118 695.7 731.048L696.704 731.616C700.13 733.55 701.419 737.716 699.76 741.236C695.164 751.018 692.198 761.193 690.801 771.442C690.288 775.167 687.107 777.97 683.266 777.97H681.642C677.699 777.97 673.804 776.171 670.231 774.713C670.231 774.713 668.236 773.94 665.943 772.966C662.076 771.319 658.315 772.625 656.245 777.245C655.415 779.097 655 781.206 655 783.32C655 785.429 655.415 787.538 656.245 789.39C658.315 794.01 662.076 795.316 665.943 793.669C668.236 792.696 670.231 791.923 670.231 791.923C673.804 790.464 677.699 788.665 681.642 788.665H682.78C686.733 788.665 689.972 791.634 690.342 795.486C691.364 805.993 693.96 816.299 698.051 826.05C699.51 829.517 698.176 833.5 694.857 835.378L693.438 836.181C690.021 838.111 685.729 838.456 681.892 838.946C681.892 838.946 679.764 839.251 677.279 839.526C673.09 839.998 670.503 842.967 671.069 847.985C671.301 849.989 672.02 852.02 673.095 853.845C674.174 855.675 675.606 857.3 677.27 858.496C681.424 861.488 685.35 860.776 687.861 857.457C689.347 855.492 690.676 853.845 690.676 853.845C693.028 850.832 695.481 847.369 698.894 845.439L699.858 844.898C703.288 842.959 707.611 843.954 709.904 847.116C716.03 855.562 723.498 863.217 732.206 869.758C735.249 872.047 736.132 876.156 734.214 879.405L733.384 880.82C731.408 884.161 727.87 886.562 724.796 888.859C724.796 888.859 723.11 890.165 721.102 891.619C717.712 894.078 716.989 897.921 720.04 901.986C721.263 903.611 722.922 905.017 724.792 906.074C726.661 907.131 728.735 907.834 730.783 908.052C735.909 908.611 738.943 906.074 739.42 901.973C739.705 899.545 740.018 897.467 740.018 897.467C740.513 893.707 740.865 889.506 742.842 886.165L743.422 885.182C745.398 881.829 749.65 880.567 753.245 882.187C763.238 886.689 773.633 889.589 784.108 890.96C787.909 891.458 790.778 894.576 790.778 898.336V899.925C790.778 903.785 788.94 907.598 787.45 911.096C787.45 911.096 786.655 913.048 785.661 915.292C783.979 919.078 785.313 922.76 790.037 924.786C791.929 925.598 794.083 926 796.234 926C798.393 926 800.548 925.598 802.439 924.786C807.164 922.76 808.498 919.078 806.816 915.292C805.816 913.048 805.027 911.096 805.027 911.096C803.537 907.598 801.699 903.785 801.699 899.925V898.812C801.699 894.942 804.737 891.768 808.672 891.405C819.401 890.41 829.929 887.868 839.891 883.859C843.438 882.436 847.507 883.741 849.421 886.986L850.241 888.383C852.213 891.724 852.566 895.925 853.065 899.681C853.065 899.681 853.378 901.764 853.663 904.192C854.14 908.292 857.174 910.829 862.3 910.27C864.348 910.052 866.422 909.345 868.292 908.292C870.156 907.235 871.816 905.829 873.038 904.2C876.094 900.135 875.371 896.296 871.981 893.838C869.973 892.383 868.287 891.078 868.287 891.078C865.209 888.781 861.671 886.379 859.699 883.034L859.146 882.095C857.165 878.741 858.182 874.501 861.412 872.261C870.04 866.265 877.861 858.955 884.544 850.431C886.881 847.452 891.079 846.588 894.399 848.461L895.844 849.278C899.257 851.208 901.711 854.671 904.062 857.684C904.062 857.684 905.391 859.335 906.881 861.295C909.393 864.619 913.314 865.326 917.468 862.335C919.127 861.138 920.568 859.514 921.643 857.688C922.723 855.859 923.441 853.828 923.669 851.824C924.24 846.806 921.648 843.836 917.454 843.365C914.978 843.09 912.85 842.784 912.85 842.784C909.014 842.299 904.722 841.95 901.305 840.02L900.305 839.452C896.875 837.518 895.585 833.352 897.24 829.836C901.84 820.054 904.802 809.875 906.203 799.626C906.712 795.901 909.901 793.097 913.738 793.097H915.366C919.306 793.097 923.2 794.896 926.774 796.355C926.774 796.355 928.768 797.132 931.061 798.106C934.929 799.748 938.69 798.442 940.76 793.822C941.59 791.971 942 789.861 942 787.752C942 785.643 941.59 783.529 940.76 781.682Z" stroke="white"/>
</g>
<g opacity="0.15">
<path fill-rule="evenodd" clip-rule="evenodd" d="M1312.6 81.2172C1312.6 92.4289 1303.32 101.521 1291.86 101.521C1280.41 101.521 1271.12 92.4289 1271.12 81.2172C1271.12 70.0017 1280.41 60.9128 1291.86 60.9128C1303.32 60.9128 1312.6 70.0017 1312.6 81.2172Z" stroke="white"/>
<path fill-rule="evenodd" clip-rule="evenodd" d="M1367.92 162.918C1367.92 170.127 1361.95 175.971 1354.59 175.971C1347.22 175.971 1341.25 170.127 1341.25 162.918C1341.25 155.709 1347.22 149.865 1354.59 149.865C1361.95 149.865 1367.92 155.709 1367.92 162.918Z" stroke="white"/>
<path fill-rule="evenodd" clip-rule="evenodd" d="M1285.93 133.912C1285.93 141.121 1279.96 146.965 1272.6 146.965C1265.24 146.965 1259.27 141.121 1259.27 133.912C1259.27 126.703 1265.24 120.859 1272.6 120.859C1279.96 120.859 1285.93 126.703 1285.93 133.912Z" stroke="white"/>
<path fill-rule="evenodd" clip-rule="evenodd" d="M1337.3 133.912C1337.3 141.121 1331.33 146.965 1323.96 146.965C1316.6 146.965 1310.63 141.121 1310.63 133.912C1310.63 126.703 1316.6 120.859 1323.96 120.859C1331.33 120.859 1337.3 126.703 1337.3 133.912Z" stroke="white"/>
<path fill-rule="evenodd" clip-rule="evenodd" d="M1388.66 125.21C1388.66 130.815 1384.02 135.362 1378.29 135.362C1372.56 135.362 1367.92 130.815 1367.92 125.21C1367.92 119.605 1372.56 115.058 1378.29 115.058C1384.02 115.058 1388.66 119.605 1388.66 125.21Z" stroke="white"/>
<path fill-rule="evenodd" clip-rule="evenodd" d="M1327.42 180.32C1327.42 184.325 1324.1 187.573 1320.01 187.573C1315.92 187.573 1312.6 184.325 1312.6 180.32C1312.6 176.314 1315.92 173.07 1320.01 173.07C1324.1 173.07 1327.42 176.314 1327.42 180.32Z" stroke="white"/>
<path fill-rule="evenodd" clip-rule="evenodd" d="M1358.04 85.5664C1358.04 89.572 1354.72 92.8197 1350.63 92.8197C1346.54 92.8197 1343.22 89.572 1343.22 85.5664C1343.22 81.5608 1346.54 78.3167 1350.63 78.3167C1354.72 78.3167 1358.04 81.5608 1358.04 85.5664Z" stroke="white"/>
<path fill-rule="evenodd" clip-rule="evenodd" d="M1440.95 115.194C1439.21 111.295 1436.04 110.197 1432.78 111.582C1430.84 112.403 1429.16 113.058 1429.16 113.058C1426.15 114.288 1422.86 115.805 1419.54 115.805H1418.58C1415.25 115.805 1412.52 113.298 1412.2 110.05C1411.35 101.191 1409.15 92.5007 1405.7 84.2783C1404.48 81.3547 1405.6 77.9965 1408.4 76.4168L1409.6 75.7356C1412.47 74.1118 1416.1 73.8172 1419.33 73.4085C1419.33 73.4085 1421.12 73.1507 1423.21 72.9151C1426.75 72.5211 1428.93 70.0135 1428.45 65.7863C1428.26 64.0925 1427.66 62.3803 1426.75 60.8411C1425.84 59.2983 1424.62 57.9285 1423.23 56.9196C1419.72 54.4009 1416.42 54.9974 1414.29 57.7959C1413.04 59.4529 1411.92 60.8448 1411.92 60.8448C1409.94 63.3818 1407.87 66.3055 1404.99 67.933L1404.18 68.3896C1401.29 70.0208 1397.64 69.1813 1395.71 66.5191C1390.54 59.394 1384.25 52.9428 1376.91 47.4231C1374.34 45.4937 1373.59 42.0287 1375.21 39.2891L1375.91 38.0998C1377.57 35.2792 1380.56 33.254 1383.16 31.3172C1383.16 31.3172 1384.57 30.2162 1386.27 28.99C1389.13 26.9169 1389.74 23.6766 1387.16 20.2521C1386.13 18.8787 1384.73 17.693 1383.16 16.8019C1381.58 15.9145 1379.83 15.318 1378.1 15.1339C1373.78 14.6625 1371.22 16.8019 1370.82 20.2595C1370.58 22.3068 1370.32 24.0595 1370.32 24.0595C1369.9 27.2299 1369.6 30.7722 1367.94 33.5928L1367.45 34.4176C1365.78 37.2492 1362.19 38.3097 1359.16 36.9473C1350.74 33.1509 1341.97 30.7022 1333.14 29.546C1329.93 29.1263 1327.52 26.4972 1327.52 23.3305V21.9901C1327.52 18.7351 1329.07 15.5205 1330.32 12.5711C1330.32 12.5711 1330.99 10.9251 1331.83 9.03245C1333.25 5.83998 1332.12 2.7322 1328.14 1.02734C1326.55 0.342445 1324.73 0 1322.91 0C1321.09 0 1319.27 0.342445 1317.68 1.02734C1313.7 2.7322 1312.58 5.83998 1313.99 9.03245C1314.83 10.9251 1315.5 12.5711 1315.5 12.5711C1316.76 15.5205 1318.31 18.7351 1318.31 21.9901V22.9254C1318.31 26.1915 1315.75 28.8648 1312.43 29.1704C1303.38 30.01 1294.5 32.153 1286.1 35.5333C1283.12 36.7337 1279.68 35.6364 1278.07 32.8968L1277.38 31.7222C1275.71 28.9016 1275.41 25.363 1274.99 22.1927C1274.99 22.1927 1274.73 20.4399 1274.49 18.3889C1274.09 14.9313 1271.53 12.792 1267.21 13.2633C1265.48 13.4511 1263.73 14.0439 1262.16 14.935C1260.58 15.8224 1259.18 17.0081 1258.15 18.3816C1255.58 21.8097 1256.19 25.0501 1259.05 27.1195C1260.74 28.3493 1262.16 29.4466 1262.16 29.4466C1264.75 31.3871 1267.74 33.4123 1269.4 36.2292L1269.87 37.0209C1271.54 39.8525 1270.68 43.4243 1267.96 45.3169C1260.68 50.3726 1254.09 56.5366 1248.45 63.7206C1246.48 66.2319 1242.94 66.9646 1240.14 65.3813L1238.92 64.6927C1236.04 63.0652 1233.98 60.1452 1231.99 57.6044C1231.99 57.6044 1230.87 56.2162 1229.62 54.5593C1227.5 51.7608 1224.19 51.1606 1220.69 53.6829C1219.29 54.6918 1218.08 56.0616 1217.17 57.6008C1216.26 59.1436 1215.65 60.8558 1215.46 62.5496C1214.98 66.7768 1217.16 69.2844 1220.7 69.6784C1222.79 69.9141 1224.58 70.1681 1224.58 70.1681C1227.82 70.5805 1231.44 70.8714 1234.32 72.499L1235.16 72.9777C1238.05 74.6089 1239.14 78.1217 1237.74 81.0896C1233.87 89.3377 1231.37 97.9172 1230.19 106.559C1229.76 109.7 1227.07 112.064 1223.83 112.064H1222.47C1219.14 112.064 1215.86 110.547 1212.84 109.317C1212.84 109.317 1211.16 108.666 1209.23 107.844C1205.97 106.456 1202.79 107.557 1201.05 111.453C1200.35 113.014 1200 114.793 1200 116.575C1200 118.353 1200.35 120.132 1201.05 121.693C1202.79 125.589 1205.97 126.69 1209.23 125.302C1211.16 124.481 1212.84 123.829 1212.84 123.829C1215.86 122.599 1219.14 121.082 1222.47 121.082H1223.42C1226.76 121.082 1229.49 123.586 1229.8 126.834C1230.66 135.693 1232.85 144.383 1236.3 152.605C1237.53 155.529 1236.41 158.887 1233.61 160.471L1232.41 161.148C1229.53 162.776 1225.91 163.067 1222.68 163.479C1222.68 163.479 1220.88 163.737 1218.79 163.969C1215.25 164.366 1213.07 166.87 1213.55 171.101C1213.75 172.791 1214.35 174.503 1215.26 176.043C1216.17 177.585 1217.38 178.955 1218.78 179.964C1222.28 182.486 1225.59 181.886 1227.71 179.088C1228.96 177.431 1230.08 176.043 1230.08 176.043C1232.07 173.502 1234.13 170.582 1237.01 168.954L1237.82 168.498C1240.72 166.863 1244.36 167.702 1246.3 170.368C1251.46 177.49 1257.76 183.945 1265.1 189.461C1267.67 191.39 1268.41 194.855 1266.79 197.595L1266.09 198.788C1264.43 201.605 1261.44 203.63 1258.85 205.567C1258.85 205.567 1257.43 206.668 1255.74 207.894C1252.88 209.967 1252.27 213.207 1254.84 216.635C1255.87 218.005 1257.27 219.191 1258.85 220.082C1260.42 220.973 1262.17 221.566 1263.9 221.75C1268.22 222.221 1270.78 220.082 1271.18 216.624C1271.42 214.577 1271.69 212.824 1271.69 212.824C1272.1 209.654 1272.4 206.112 1274.07 203.295L1274.56 202.466C1276.22 199.638 1279.81 198.574 1282.84 199.94C1291.27 203.736 1300.03 206.181 1308.86 207.338C1312.07 207.757 1314.49 210.387 1314.49 213.557V214.897C1314.49 218.152 1312.94 221.367 1311.68 224.316C1311.68 224.316 1311.01 225.962 1310.17 227.855C1308.76 231.047 1309.88 234.152 1313.86 235.86C1315.46 236.545 1317.28 236.884 1319.09 236.884C1320.91 236.884 1322.73 236.545 1324.32 235.86C1328.31 234.152 1329.43 231.047 1328.01 227.855C1327.17 225.962 1326.5 224.316 1326.5 224.316C1325.25 221.367 1323.7 218.152 1323.7 214.897V213.958C1323.7 210.696 1326.26 208.019 1329.58 207.713C1338.62 206.874 1347.5 204.731 1355.9 201.35C1358.89 200.15 1362.32 201.251 1363.94 203.987L1364.63 205.165C1366.29 207.982 1366.59 211.524 1367.01 214.691C1367.01 214.691 1367.27 216.447 1367.51 218.495C1367.92 221.952 1370.47 224.092 1374.8 223.62C1376.52 223.436 1378.27 222.84 1379.85 221.952C1381.42 221.061 1382.82 219.876 1383.85 218.502C1386.43 215.074 1385.82 211.837 1382.96 209.764C1381.27 208.538 1379.84 207.437 1379.84 207.437C1377.25 205.5 1374.27 203.475 1372.6 200.654L1372.14 199.863C1370.47 197.035 1371.32 193.459 1374.05 191.57C1381.32 186.515 1387.92 180.351 1393.55 173.163C1395.52 170.652 1399.06 169.923 1401.86 171.502L1403.08 172.191C1405.96 173.819 1408.03 176.739 1410.01 179.279C1410.01 179.279 1411.13 180.671 1412.39 182.324C1414.51 185.127 1417.81 185.723 1421.31 183.201C1422.71 182.192 1423.93 180.822 1424.84 179.283C1425.75 177.74 1426.35 176.028 1426.54 174.338C1427.02 170.107 1424.84 167.603 1421.3 167.205C1419.22 166.973 1417.42 166.716 1417.42 166.716C1414.19 166.307 1410.57 166.012 1407.69 164.385L1406.84 163.906C1403.95 162.275 1402.86 158.762 1404.26 155.798C1408.14 147.55 1410.63 138.966 1411.82 130.324C1412.24 127.183 1414.93 124.819 1418.17 124.819H1419.54C1422.86 124.819 1426.15 126.337 1429.16 127.566C1429.16 127.566 1430.84 128.222 1432.78 129.043C1436.04 130.427 1439.21 129.326 1440.95 125.431C1441.65 123.869 1442 122.091 1442 120.312C1442 118.534 1441.65 116.752 1440.95 115.194Z" stroke="white"/>
</g>
<g opacity="0.15">
<path fill-rule="evenodd" clip-rule="evenodd" d="M485.536 283.537C485.536 286.191 483.337 288.344 480.625 288.344C477.913 288.344 475.714 286.191 475.714 283.537C475.714 280.882 477.913 278.73 480.625 278.73C483.337 278.73 485.536 280.882 485.536 283.537Z" stroke="white"/>
<path fill-rule="evenodd" clip-rule="evenodd" d="M498.304 302.764C498.304 304.357 496.985 305.649 495.358 305.649C493.73 305.649 492.411 304.357 492.411 302.764C492.411 301.171 493.73 299.88 495.358 299.88C496.985 299.88 498.304 301.171 498.304 302.764Z" stroke="white"/>
<path fill-rule="evenodd" clip-rule="evenodd" d="M479.643 296.035C479.643 297.628 478.324 298.919 476.696 298.919C475.069 298.919 473.75 297.628 473.75 296.035C473.75 294.442 475.069 293.151 476.696 293.151C478.324 293.151 479.643 294.442 479.643 296.035Z" stroke="white"/>
<path fill-rule="evenodd" clip-rule="evenodd" d="M491.429 296.035C491.429 297.628 490.109 298.919 488.482 298.919C486.855 298.919 485.536 297.628 485.536 296.035C485.536 294.442 486.855 293.151 488.482 293.151C490.109 293.151 491.429 294.442 491.429 296.035Z" stroke="white"/>
<path fill-rule="evenodd" clip-rule="evenodd" d="M503.214 293.631C503.214 294.958 502.115 296.035 500.759 296.035C499.403 296.035 498.304 294.958 498.304 293.631C498.304 292.304 499.403 291.228 500.759 291.228C502.115 291.228 503.214 292.304 503.214 293.631Z" stroke="white"/>
<path fill-rule="evenodd" clip-rule="evenodd" d="M488.482 306.129C488.482 306.925 487.823 307.571 487.009 307.571C486.195 307.571 485.536 306.925 485.536 306.129C485.536 305.332 486.195 304.687 487.009 304.687C487.823 304.687 488.482 305.332 488.482 306.129Z" stroke="white"/>
<path fill-rule="evenodd" clip-rule="evenodd" d="M496.339 284.979C496.339 285.775 495.679 286.421 494.866 286.421C494.052 286.421 493.393 285.775 493.393 284.979C493.393 284.182 494.052 283.537 494.866 283.537C495.679 283.537 496.339 284.182 496.339 284.979Z" stroke="white"/>
<path fill-rule="evenodd" clip-rule="evenodd" d="M514.762 291.451C514.366 290.565 513.645 290.315 512.904 290.63C512.464 290.817 512.082 290.966 512.082 290.966C511.397 291.245 510.651 291.59 509.896 291.59H509.678C508.92 291.59 508.299 291.02 508.227 290.282C508.033 288.269 507.535 286.294 506.751 284.425C506.472 283.76 506.727 282.997 507.363 282.638L507.636 282.483C508.29 282.114 509.113 282.047 509.848 281.954C509.848 281.954 510.255 281.896 510.73 281.842C511.534 281.753 512.03 281.183 511.921 280.222C511.878 279.837 511.74 279.448 511.533 279.098C511.326 278.748 511.051 278.436 510.733 278.207C509.936 277.634 509.186 277.77 508.703 278.406C508.419 278.783 508.163 279.099 508.163 279.099C507.713 279.676 507.243 280.34 506.588 280.71L506.405 280.814C505.748 281.184 504.918 280.994 504.479 280.389C503.305 278.769 501.874 277.303 500.206 276.049C499.622 275.61 499.453 274.823 499.82 274.2L499.98 273.93C500.357 273.289 501.036 272.828 501.626 272.388C501.626 272.388 501.948 272.138 502.333 271.859C502.983 271.388 503.122 270.652 502.537 269.873C502.302 269.561 501.984 269.292 501.626 269.089C501.269 268.888 500.871 268.752 500.478 268.71C499.497 268.603 498.914 269.089 498.822 269.875C498.768 270.34 498.709 270.739 498.709 270.739C498.613 271.459 498.545 272.264 498.168 272.905L498.057 273.093C497.678 273.736 496.862 273.977 496.173 273.668C494.258 272.805 492.266 272.248 490.26 271.986C489.53 271.89 488.981 271.293 488.981 270.573V270.268C488.981 269.529 489.333 268.798 489.619 268.128C489.619 268.128 489.771 267.754 489.961 267.323C490.284 266.598 490.027 265.892 489.123 265.504C488.761 265.348 488.348 265.271 487.934 265.271C487.521 265.271 487.108 265.348 486.746 265.504C485.841 265.892 485.586 266.598 485.907 267.323C486.099 267.754 486.25 268.128 486.25 268.128C486.536 268.798 486.888 269.529 486.888 270.268V270.481C486.888 271.223 486.307 271.831 485.552 271.9C483.495 272.091 481.477 272.578 479.569 273.346C478.89 273.619 478.11 273.37 477.743 272.747L477.585 272.48C477.207 271.839 477.139 271.035 477.044 270.314C477.044 270.314 476.984 269.916 476.93 269.45C476.839 268.664 476.257 268.178 475.274 268.285C474.882 268.328 474.484 268.462 474.126 268.665C473.769 268.867 473.451 269.136 473.216 269.448C472.631 270.227 472.77 270.964 473.42 271.434C473.805 271.714 474.127 271.963 474.127 271.963C474.716 272.404 475.395 272.864 475.773 273.505L475.88 273.684C476.258 274.328 476.063 275.14 475.444 275.57C473.791 276.719 472.292 278.12 471.011 279.753C470.564 280.323 469.758 280.49 469.122 280.13L468.846 279.974C468.191 279.604 467.722 278.94 467.271 278.363C467.271 278.363 467.016 278.047 466.731 277.67C466.25 277.034 465.498 276.898 464.702 277.471C464.383 277.701 464.108 278.012 463.902 278.362C463.696 278.712 463.557 279.101 463.514 279.486C463.405 280.447 463.901 281.017 464.704 281.107C465.18 281.16 465.587 281.218 465.587 281.218C466.323 281.312 467.146 281.378 467.8 281.748L467.992 281.856C468.649 282.227 468.896 283.026 468.578 283.7C467.697 285.575 467.128 287.525 466.861 289.489C466.763 290.203 466.153 290.74 465.417 290.74H465.106C464.35 290.74 463.604 290.395 462.919 290.115C462.919 290.115 462.537 289.967 462.097 289.781C461.356 289.465 460.635 289.715 460.239 290.601C460.08 290.956 460 291.36 460 291.765C460 292.169 460.08 292.573 460.239 292.928C460.635 293.814 461.356 294.064 462.097 293.748C462.537 293.562 462.919 293.414 462.919 293.414C463.604 293.134 464.35 292.789 465.106 292.789H465.324C466.081 292.789 466.702 293.358 466.773 294.096C466.969 296.11 467.466 298.085 468.25 299.954C468.53 300.618 468.274 301.381 467.638 301.741L467.366 301.895C466.711 302.265 465.889 302.331 465.154 302.425C465.154 302.425 464.746 302.484 464.27 302.536C463.467 302.627 462.971 303.196 463.079 304.157C463.124 304.541 463.262 304.931 463.468 305.28C463.675 305.631 463.949 305.942 464.268 306.172C465.064 306.745 465.816 306.608 466.297 305.972C466.582 305.596 466.837 305.28 466.837 305.28C467.288 304.703 467.758 304.039 468.412 303.669L468.596 303.566C469.254 303.194 470.082 303.385 470.522 303.991C471.696 305.609 473.127 307.076 474.796 308.33C475.379 308.768 475.548 309.556 475.18 310.178L475.021 310.45C474.643 311.09 473.965 311.55 473.376 311.99C473.376 311.99 473.052 312.241 472.668 312.519C472.018 312.99 471.879 313.727 472.464 314.506C472.698 314.817 473.016 315.087 473.375 315.289C473.733 315.492 474.13 315.626 474.523 315.668C475.505 315.775 476.087 315.289 476.178 314.503C476.233 314.038 476.293 313.64 476.293 313.64C476.387 312.919 476.455 312.114 476.834 311.474L476.945 311.286C477.324 310.643 478.138 310.401 478.827 310.712C480.743 311.574 482.735 312.13 484.742 312.393C485.47 312.488 486.02 313.086 486.02 313.806V314.111C486.02 314.851 485.668 315.581 485.382 316.252C485.382 316.252 485.23 316.626 485.039 317.056C484.717 317.781 484.973 318.487 485.878 318.875C486.241 319.031 486.654 319.108 487.066 319.108C487.479 319.108 487.892 319.031 488.255 318.875C489.16 318.487 489.416 317.781 489.094 317.056C488.902 316.626 488.751 316.252 488.751 316.252C488.465 315.581 488.113 314.851 488.113 314.111V313.898C488.113 313.156 488.695 312.548 489.449 312.478C491.505 312.287 493.523 311.8 495.432 311.032C496.112 310.759 496.892 311.009 497.258 311.631L497.416 311.899C497.793 312.539 497.861 313.344 497.957 314.064C497.957 314.064 498.017 314.463 498.071 314.929C498.163 315.714 498.744 316.201 499.726 316.093C500.119 316.052 500.516 315.916 500.875 315.714C501.232 315.512 501.55 315.242 501.784 314.93C502.37 314.151 502.231 313.415 501.582 312.944C501.197 312.666 500.874 312.415 500.874 312.415C500.284 311.975 499.606 311.515 499.228 310.874L499.122 310.694C498.742 310.051 498.937 309.239 499.556 308.809C501.21 307.66 502.709 306.259 503.989 304.626C504.437 304.055 505.242 303.889 505.878 304.248L506.155 304.405C506.809 304.775 507.279 305.438 507.73 306.016C507.73 306.016 507.984 306.332 508.27 306.708C508.751 307.345 509.503 307.48 510.299 306.907C510.617 306.678 510.893 306.367 511.099 306.017C511.306 305.666 511.443 305.277 511.487 304.893C511.596 303.931 511.1 303.362 510.296 303.272C509.822 303.219 509.414 303.161 509.414 303.161C508.679 303.068 507.856 303.001 507.201 302.631L507.01 302.522C506.352 302.151 506.105 301.353 506.422 300.679C507.304 298.805 507.872 296.854 508.14 294.89C508.237 294.176 508.849 293.639 509.584 293.639H509.896C510.651 293.639 511.397 293.983 512.082 294.263C512.082 294.263 512.464 294.412 512.904 294.599C513.645 294.913 514.366 294.663 514.762 293.778C514.921 293.423 515 293.019 515 292.614C515 292.21 514.921 291.805 514.762 291.451Z" stroke="white"/>
</g>
<g opacity="0.15">
<path fill-rule="evenodd" clip-rule="evenodd" d="M485.536 283.537C485.536 286.191 483.337 288.344 480.625 288.344C477.913 288.344 475.714 286.191 475.714 283.537C475.714 280.882 477.913 278.73 480.625 278.73C483.337 278.73 485.536 280.882 485.536 283.537Z" stroke="white"/>
<path fill-rule="evenodd" clip-rule="evenodd" d="M498.304 302.764C498.304 304.357 496.985 305.649 495.358 305.649C493.73 305.649 492.411 304.357 492.411 302.764C492.411 301.171 493.73 299.88 495.358 299.88C496.985 299.88 498.304 301.171 498.304 302.764Z" stroke="white"/>
<path fill-rule="evenodd" clip-rule="evenodd" d="M479.643 296.035C479.643 297.628 478.324 298.919 476.696 298.919C475.069 298.919 473.75 297.628 473.75 296.035C473.75 294.442 475.069 293.151 476.696 293.151C478.324 293.151 479.643 294.442 479.643 296.035Z" stroke="white"/>
<path fill-rule="evenodd" clip-rule="evenodd" d="M491.429 296.035C491.429 297.628 490.109 298.919 488.482 298.919C486.855 298.919 485.536 297.628 485.536 296.035C485.536 294.442 486.855 293.151 488.482 293.151C490.109 293.151 491.429 294.442 491.429 296.035Z" stroke="white"/>
<path fill-rule="evenodd" clip-rule="evenodd" d="M503.214 293.631C503.214 294.958 502.115 296.035 500.759 296.035C499.403 296.035 498.304 294.958 498.304 293.631C498.304 292.304 499.403 291.228 500.759 291.228C502.115 291.228 503.214 292.304 503.214 293.631Z" stroke="white"/>
<path fill-rule="evenodd" clip-rule="evenodd" d="M488.482 306.129C488.482 306.925 487.823 307.571 487.009 307.571C486.195 307.571 485.536 306.925 485.536 306.129C485.536 305.332 486.195 304.687 487.009 304.687C487.823 304.687 488.482 305.332 488.482 306.129Z" stroke="white"/>
<path fill-rule="evenodd" clip-rule="evenodd" d="M496.339 284.979C496.339 285.775 495.679 286.421 494.866 286.421C494.052 286.421 493.393 285.775 493.393 284.979C493.393 284.182 494.052 283.537 494.866 283.537C495.679 283.537 496.339 284.182 496.339 284.979Z" stroke="white"/>
<path fill-rule="evenodd" clip-rule="evenodd" d="M514.762 291.451C514.366 290.565 513.645 290.315 512.904 290.63C512.464 290.817 512.082 290.966 512.082 290.966C511.397 291.245 510.651 291.59 509.896 291.59H509.678C508.92 291.59 508.299 291.02 508.227 290.282C508.033 288.269 507.535 286.294 506.751 284.425C506.472 283.76 506.727 282.997 507.363 282.638L507.636 282.483C508.29 282.114 509.113 282.047 509.848 281.954C509.848 281.954 510.255 281.896 510.73 281.842C511.534 281.753 512.03 281.183 511.921 280.222C511.878 279.837 511.74 279.448 511.533 279.098C511.326 278.748 511.051 278.436 510.733 278.207C509.936 277.634 509.186 277.77 508.703 278.406C508.419 278.783 508.163 279.099 508.163 279.099C507.713 279.676 507.243 280.34 506.588 280.71L506.405 280.814C505.748 281.184 504.918 280.994 504.479 280.389C503.305 278.769 501.874 277.303 500.206 276.049C499.622 275.61 499.453 274.823 499.82 274.2L499.98 273.93C500.357 273.289 501.036 272.828 501.626 272.388C501.626 272.388 501.948 272.138 502.333 271.859C502.983 271.388 503.122 270.652 502.537 269.873C502.302 269.561 501.984 269.292 501.626 269.089C501.269 268.888 500.871 268.752 500.478 268.71C499.497 268.603 498.914 269.089 498.822 269.875C498.768 270.34 498.709 270.739 498.709 270.739C498.613 271.459 498.545 272.264 498.168 272.905L498.057 273.093C497.678 273.736 496.862 273.977 496.173 273.668C494.258 272.805 492.266 272.248 490.26 271.986C489.53 271.89 488.981 271.293 488.981 270.573V270.268C488.981 269.529 489.333 268.798 489.619 268.128C489.619 268.128 489.771 267.754 489.961 267.323C490.284 266.598 490.027 265.892 489.123 265.504C488.761 265.348 488.348 265.271 487.934 265.271C487.521 265.271 487.108 265.348 486.746 265.504C485.841 265.892 485.586 266.598 485.907 267.323C486.099 267.754 486.25 268.128 486.25 268.128C486.536 268.798 486.888 269.529 486.888 270.268V270.481C486.888 271.223 486.307 271.831 485.552 271.9C483.495 272.091 481.477 272.578 479.569 273.346C478.89 273.619 478.11 273.37 477.743 272.747L477.585 272.48C477.207 271.839 477.139 271.035 477.044 270.314C477.044 270.314 476.984 269.916 476.93 269.45C476.839 268.664 476.257 268.178 475.274 268.285C474.882 268.328 474.484 268.462 474.126 268.665C473.769 268.867 473.451 269.136 473.216 269.448C472.631 270.227 472.77 270.964 473.42 271.434C473.805 271.714 474.127 271.963 474.127 271.963C474.716 272.404 475.395 272.864 475.773 273.505L475.88 273.684C476.258 274.328 476.063 275.14 475.444 275.57C473.791 276.719 472.292 278.12 471.011 279.753C470.564 280.323 469.758 280.49 469.122 280.13L468.846 279.974C468.191 279.604 467.722 278.94 467.271 278.363C467.271 278.363 467.016 278.047 466.731 277.67C466.25 277.034 465.498 276.898 464.702 277.471C464.383 277.701 464.108 278.012 463.902 278.362C463.696 278.712 463.557 279.101 463.514 279.486C463.405 280.447 463.901 281.017 464.704 281.107C465.18 281.16 465.587 281.218 465.587 281.218C466.323 281.312 467.146 281.378 467.8 281.748L467.992 281.856C468.649 282.227 468.896 283.026 468.578 283.7C467.697 285.575 467.128 287.525 466.861 289.489C466.763 290.203 466.153 290.74 465.417 290.74H465.106C464.35 290.74 463.604 290.395 462.919 290.115C462.919 290.115 462.537 289.967 462.097 289.781C461.356 289.465 460.635 289.715 460.239 290.601C460.08 290.956 460 291.36 460 291.765C460 292.169 460.08 292.573 460.239 292.928C460.635 293.814 461.356 294.064 462.097 293.748C462.537 293.562 462.919 293.414 462.919 293.414C463.604 293.134 464.35 292.789 465.106 292.789H465.324C466.081 292.789 466.702 293.358 466.773 294.096C466.969 296.11 467.466 298.085 468.25 299.954C468.53 300.618 468.274 301.381 467.638 301.741L467.366 301.895C466.711 302.265 465.889 302.331 465.154 302.425C465.154 302.425 464.746 302.484 464.27 302.536C463.467 302.627 462.971 303.196 463.079 304.157C463.124 304.541 463.262 304.931 463.468 305.28C463.675 305.631 463.949 305.942 464.268 306.172C465.064 306.745 465.816 306.608 466.297 305.972C466.582 305.596 466.837 305.28 466.837 305.28C467.288 304.703 467.758 304.039 468.412 303.669L468.596 303.566C469.254 303.194 470.082 303.385 470.522 303.991C471.696 305.609 473.127 307.076 474.796 308.33C475.379 308.768 475.548 309.556 475.18 310.178L475.021 310.45C474.643 311.09 473.965 311.55 473.376 311.99C473.376 311.99 473.052 312.241 472.668 312.519C472.018 312.99 471.879 313.727 472.464 314.506C472.698 314.817 473.016 315.087 473.375 315.289C473.733 315.492 474.13 315.626 474.523 315.668C475.505 315.775 476.087 315.289 476.178 314.503C476.233 314.038 476.293 313.64 476.293 313.64C476.387 312.919 476.455 312.114 476.834 311.474L476.945 311.286C477.324 310.643 478.138 310.401 478.827 310.712C480.743 311.574 482.735 312.13 484.742 312.393C485.47 312.488 486.02 313.086 486.02 313.806V314.111C486.02 314.851 485.668 315.581 485.382 316.252C485.382 316.252 485.23 316.626 485.039 317.056C484.717 317.781 484.973 318.487 485.878 318.875C486.241 319.031 486.654 319.108 487.066 319.108C487.479 319.108 487.892 319.031 488.255 318.875C489.16 318.487 489.416 317.781 489.094 317.056C488.902 316.626 488.751 316.252 488.751 316.252C488.465 315.581 488.113 314.851 488.113 314.111V313.898C488.113 313.156 488.695 312.548 489.449 312.478C491.505 312.287 493.523 311.8 495.432 311.032C496.112 310.759 496.892 311.009 497.258 311.631L497.416 311.899C497.793 312.539 497.861 313.344 497.957 314.064C497.957 314.064 498.017 314.463 498.071 314.929C498.163 315.714 498.744 316.201 499.726 316.093C500.119 316.052 500.516 315.916 500.875 315.714C501.232 315.512 501.55 315.242 501.784 314.93C502.37 314.151 502.231 313.415 501.582 312.944C501.197 312.666 500.874 312.415 500.874 312.415C500.284 311.975 499.606 311.515 499.228 310.874L499.122 310.694C498.742 310.051 498.937 309.239 499.556 308.809C501.21 307.66 502.709 306.259 503.989 304.626C504.437 304.055 505.242 303.889 505.878 304.248L506.155 304.405C506.809 304.775 507.279 305.438 507.73 306.016C507.73 306.016 507.984 306.332 508.27 306.708C508.751 307.345 509.503 307.48 510.299 306.907C510.617 306.678 510.893 306.367 511.099 306.017C511.306 305.666 511.443 305.277 511.487 304.893C511.596 303.931 511.1 303.362 510.296 303.272C509.822 303.219 509.414 303.161 509.414 303.161C508.679 303.068 507.856 303.001 507.201 302.631L507.01 302.522C506.352 302.151 506.105 301.353 506.422 300.679C507.304 298.805 507.872 296.854 508.14 294.89C508.237 294.176 508.849 293.639 509.584 293.639H509.896C510.651 293.639 511.397 293.983 512.082 294.263C512.082 294.263 512.464 294.412 512.904 294.599C513.645 294.913 514.366 294.663 514.762 293.778C514.921 293.423 515 293.019 515 292.614C515 292.21 514.921 291.805 514.762 291.451Z" stroke="white"/>
</g>
</g>
</svg>
